<svg width="133" height="132" viewBox="0 0 133 132" fill="none" xmlns="http://www.w3.org/2000/svg">
<circle cx="66.1722" cy="65.938" r="65.938" fill="#D86E38"/>
<mask id="mask0_647_334" style="mask-type:alpha" maskUnits="userSpaceOnUse" x="0" y="0" width="133" height="132">
<circle cx="66.1722" cy="65.938" r="65.938" fill="#D86E38"/>
</mask>
<g mask="url(#mask0_647_334)">
<path fill-rule="evenodd" clip-rule="evenodd" d="M59.9361 56.6185C63.1779 56.7785 68.2255 58.1682 68.4778 59.0565C68.8719 60.4434 68.0251 65.6431 69.4414 68.4439C70.0451 69.6378 72.3377 69.5308 73.226 69.9196C76.1982 71.2206 84.9971 73.688 86.8113 76.7948C87.5381 78.0395 92.0047 93.4837 94.3781 101.363C94.6457 102.251 94.9479 103.073 95.2765 103.834L95.3972 103.242C96.3649 98.4802 96.8488 95.5973 96.8488 94.5937C96.8488 93.0255 95.5978 86.4089 96.8488 84.7263C98.0872 83.0605 101.072 81.6985 102.415 81.6714L102.455 81.671C103.336 81.671 104.101 81.3954 104.75 80.8442L105.7 80.3662C110.536 77.9395 113.362 76.6084 114.177 76.3729C115.477 75.997 117.69 76.7978 116.583 78.0001C115.846 78.8016 113.992 80.2194 111.023 82.2537L109.903 83.1433L110.038 83.2139C111.485 83.9757 112.336 84.6169 112.591 85.1375C112.853 85.6741 112.727 86.3088 112.213 87.0417L112.291 87.1177C112.941 87.7561 113.267 88.1842 113.267 88.4023V89.4673C113.914 90.4149 114.076 91.2053 113.752 91.8382C113.428 92.4712 112.915 93.0197 112.213 93.4837C111.695 94.8453 111.079 95.8144 110.364 96.3909C109.649 96.9675 108.412 97.4474 106.655 97.8308L105.066 101.632L103.777 106.973L103.128 112.932L103.317 113.069C104.19 113.705 104.75 114.177 104.75 114.664C104.75 115.424 101.225 133.281 95.7407 134.081C94.5547 134.253 88.4036 133.406 86.384 131.763L86.4138 131.94C86.889 134.81 86.7884 136.301 86.1122 136.412C77.8011 137.774 54.1972 138.195 15.3004 137.675C15.069 117.03 16.1154 103.281 18.4397 96.4279C24.3841 78.9001 30.9382 72.9135 33.2311 72.4008C35.2396 71.9516 42.2043 69.1796 44.1513 68.4439C45.4221 67.9637 45.6944 66.5238 47.1426 66.5238L47.2597 66.5244C48.6603 66.5384 49.9023 66.7889 50.6001 66.0686C52.4313 64.1783 51.9194 61.5618 52.6791 59.0565C53.0977 57.6761 55.9581 56.4222 59.9361 56.6185Z" fill="white"/>
<path d="M47.1426 66.5239L47.2597 66.5245C47.6059 66.528 47.9423 66.5459 48.2633 66.5601L47.587 68.8643L47.5724 69.1063C47.1333 77.0508 51.0237 80.8539 59.2435 80.5156C67.4633 80.1773 71.5519 77.5774 71.5094 72.7159L71.5068 72.5679L71.5069 69.5426L71.6362 69.5674C72.2601 69.6841 72.8614 69.7602 73.226 69.9198C76.1982 71.2208 84.9971 73.6881 86.8113 76.795C87.5381 78.0397 92.0047 93.4839 94.3781 101.363C94.4649 101.651 94.5552 101.932 94.649 102.206L94.649 103.763L94.6232 103.858C93.7913 106.969 94.8989 109.513 97.9458 111.489C100.105 112.89 102.323 113.799 104.6 114.217C104.698 114.368 104.75 114.515 104.75 114.664C104.75 115.424 101.225 133.281 95.7408 134.081C94.5547 134.254 88.4036 133.406 86.384 131.763L86.4138 131.94L86.4416 132.111C86.8847 134.869 86.7749 136.303 86.1122 136.412C77.8011 137.774 54.1972 138.195 15.3004 137.675C15.069 117.03 16.1154 103.281 18.4397 96.4281C24.3841 78.9003 30.9382 72.9137 33.2311 72.401C35.2396 71.9518 42.2043 69.1798 44.1513 68.4441C45.4221 67.9638 45.6944 66.5239 47.1426 66.5239Z" fill="#D86E38"/>
<path fill-rule="evenodd" clip-rule="evenodd" d="M51.0299 61.5682C51.2202 61.1912 51.7253 61.2401 52.0586 61.4111C53.0582 62.1419 52.0123 63.5583 51.7358 64.4501C51.0245 66.1798 49.7891 67.8702 48.0836 68.6787C48.225 70.3981 48.3851 72.1138 48.4442 73.8386C50.6247 76.5432 54.3009 77.5304 57.5644 78.2895C62.69 79.707 68.4746 76.8028 70.2046 71.7365C68.2357 70.6178 67.5986 67.6887 68.186 65.6452C68.2371 65.5017 68.4596 65.4383 68.5387 65.5985C69.0779 66.7074 69.006 68.0602 69.6189 69.1557C75.502 69.7189 83.0945 71.9387 86.9486 76.6962C88.6566 79.0765 89.3331 82.1722 90.1744 84.9308C91.9693 90.618 93.3995 96.4203 95.1598 102.113L95.3673 101.036C95.936 98.0688 96.4528 95.0612 96.0687 92.0436L96.0618 91.8992C95.9363 89.4981 95.1849 85.036 97.047 83.415C98.7315 82.1278 101.172 81.0935 103.285 81.6868C107.047 80.013 110.293 77.1943 114.3 76.0965C115.533 75.8427 117.306 76.1432 117.015 77.8158C116.207 80.7412 112.825 81.8767 110.513 83.3852C111.995 83.7868 113.802 85.5891 112.644 87.1608C112.634 87.1886 112.625 87.2098 112.616 87.2265C113.555 87.6427 113.687 88.6887 113.456 89.5856C113.433 89.8226 113.37 89.6189 113.51 89.8337C114.569 90.833 114.101 93.6186 112.505 93.7128C112.609 95.0326 111.761 96.3145 110.687 97.0345C109.53 97.8101 107.857 97.8435 106.898 98.9051C104.649 102.872 103.873 107.555 103.627 112.098C105.11 112.653 106.441 114.313 105.094 115.721C105.067 115.724 105.04 115.727 105.013 115.729C104.232 117.814 103.931 120.035 103.518 122.212C102.882 125.927 101.226 129.337 99.1112 132.431C96.6656 136.527 90.0892 135.878 86.7761 133.234C86.7893 133.928 86.9036 134.617 86.6815 135.287C86.3537 136.01 85.5544 135.698 85.4752 134.986C83.7238 135.971 83.3113 132.72 85.2583 133.235C85.1085 130.885 85.0217 128.531 84.9512 126.177C82.747 126.89 82.652 123.234 84.9066 123.965L84.9039 122.954C84.8874 115.202 84.973 107.424 85.996 99.733C86.0906 99.1577 86.2509 98.6013 86.3443 98.0293C86.3543 97.9702 86.4467 97.987 86.447 98.0437C86.6054 108.811 85.9017 119.601 86.6359 130.372C87.2471 130.559 87.4908 131.26 87.9434 131.669C88.9481 132.596 90.3164 133.048 91.6544 133.205C95.4011 133.731 97.0188 132.586 98.6873 129.33C97.9347 129.832 96.9178 128.944 97.3765 128.149L97.3909 128.124C97.8673 127.281 99.2125 127.786 99.0421 128.731C100.72 126.045 101.598 123.016 102.246 119.942L102.334 119.575C102.649 118.27 103.058 116.775 103.815 115.595C99.1989 114.418 94.6835 110.834 93.9612 105.916C92.7892 109.598 91.2015 113.197 89.6882 116.779C89.2209 118.024 89.0261 119.362 88.3562 120.517C88.2004 120.785 87.8054 120.716 87.7173 120.434C87.1148 117.74 88.9404 115.178 89.8883 112.754C90.6624 111.383 92.8841 105.125 94.2616 105.11C92.7138 98.3257 90.6492 91.592 88.6831 84.8921C86.7819 75.8454 82.9075 74.1009 74.6999 71.2525C76.1803 78.7967 82.9393 86.0993 79.3427 94.0122L79.2552 94.2174C78.8874 95.0899 78.5818 95.969 78.8386 96.9266C79.0879 97.8557 79.6554 98.6625 80.1095 99.4982C82.6476 104.219 80.9005 109.732 79.9191 114.648C78.6795 120.413 77.4549 126.183 76.1735 131.939C75.9209 133.087 75.7572 134.27 75.3757 135.383C75.1787 135.957 74.1961 135.903 74.2596 135.233C74.3808 133.933 74.7458 132.666 75.0131 131.389C76.6086 123.126 78.7675 114.96 80.1402 106.66C81.0232 100.516 77.547 99.5721 77.6768 95.6024C78.1493 93.5721 79.3999 91.7603 79.3281 89.5967C79.6061 82.9739 74.782 77.51 74.1864 71.0688L73.1348 70.6937C72.6093 70.5055 72.0843 70.3159 71.5609 70.1217C74.3156 89.3867 73.4791 109.073 72.1021 128.433C71.8208 129.326 72.0884 138.46 70.909 137.906C70.8494 138.255 70.6641 138.597 70.2613 138.596C66.6036 138.629 62.9448 138.687 59.2871 138.731C57.5277 138.568 55.1094 139.24 53.6129 138.225C51.8851 137.732 51.6865 130.16 51.2246 128.492L51.0445 127.279C48.1085 107.459 45.4812 87.2306 47.5916 67.2147C44.6554 67.3275 44.0494 70.4964 43.8316 72.8036C43.2871 77.896 39.9968 82.2815 39.839 87.4323C39.8257 88.682 40.0616 89.8926 40.5611 91.04C41.8864 93.8511 44.1786 97.1009 42.4654 100.241C40.4394 102.685 40.6148 103.328 41.3582 106.348C43.4499 116.334 46.9236 125.933 50.228 135.56C49.51 139.302 45.1915 125.411 44.7852 124.363C42.8736 125.324 41.8294 122.135 44.022 121.907C42.6137 117.193 41.3176 112.444 40.2385 107.643L40.21 107.507C39.7333 105.289 38.7957 102.691 40.379 100.723C44.4613 96.595 37.6819 91.9806 38.5371 86.9794C37.7987 87.5269 36.6809 86.9509 36.6977 86.0313C36.6642 84.996 38.0549 84.4657 38.7242 85.2556C39.4122 81.1981 41.8061 77.6559 42.5305 73.6102L42.5632 73.4202C42.8087 71.9904 42.8779 70.4859 43.5802 69.1828C42.6242 69.8037 41.6061 70.3055 40.559 70.7484C42.4313 72.3122 38.8057 73.7395 39.1057 71.3237C28.8383 74.2942 26.5176 78.4366 22.7479 87.9498C23.452 87.2656 24.6583 88.151 24.2368 89.0235C23.9005 89.9427 22.4335 89.6739 22.4341 88.6942L22.2622 89.1039C19.9763 94.5698 17.8957 100.168 16.8501 106.018C18.9012 105.728 18.379 109.006 16.5206 108.082C15.7749 113.284 15.7631 118.56 15.8542 123.805C17.5842 122.897 17.6363 125.98 15.8709 125.101C15.9354 129.399 16.03 133.696 16.1012 137.994C16.1157 138.908 14.7047 138.904 14.6824 137.994C14.5176 131.39 14.2173 124.775 14.3601 118.17C14.2258 106.705 17.5216 95.6552 22.4323 85.3854C26.7774 73.5604 32.7792 72.2156 43.8217 68.7776C44.841 67.2645 47.0187 65.8335 48.7955 66.7836C49.7895 65.179 50.2944 63.2779 51.0299 61.5682ZM32.1108 102.781C32.152 102.635 32.3601 102.671 32.3667 102.815C32.4591 104.67 32.3767 106.537 32.2499 108.4C32.173 109.537 32.0785 110.673 31.9984 111.803C31.7859 114.783 31.6145 117.766 31.4843 120.752C31.5299 120.733 31.5767 120.716 31.6256 120.703C31.8504 120.642 32.0753 120.642 32.3 120.703C32.5004 120.759 32.6757 120.857 32.8266 120.998L32.8586 121.029C32.9821 121.143 33.07 121.279 33.1212 121.436C33.1941 121.576 33.231 121.725 33.2309 121.885L33.2301 121.925C33.2291 122.154 33.1724 122.366 33.0567 122.565C32.9443 122.755 32.7929 122.906 32.6026 123.02C32.4046 123.134 32.1919 123.191 31.9628 123.192C31.9383 123.194 31.9137 123.197 31.8893 123.198C31.719 123.204 31.56 123.169 31.413 123.092L31.3908 123.085C31.3352 124.6 31.2896 126.115 31.2562 127.631C31.2261 128.952 31.1861 130.273 31.1594 131.594L31.147 132.254L31.1227 133.715C31.1149 134.315 31.1187 134.89 30.9146 135.457L30.8901 135.522C30.7432 135.9 30.6287 136.426 30.2356 136.637C29.922 136.805 29.4991 136.743 29.3188 136.415C29.1675 136.142 29.2987 135.748 29.5225 135.563C29.518 135.551 29.5113 135.54 29.5058 135.527C29.4713 135.427 29.4189 135.333 29.3878 135.231C29.2898 134.911 29.3166 134.569 29.3155 134.236C29.3155 133.649 29.3354 133.061 29.3511 132.475C29.3856 131.226 29.4257 129.979 29.4745 128.732C29.6399 124.547 29.9513 120.362 30.308 116.19L30.4291 114.781C30.5904 112.908 30.7573 111.033 30.9936 109.17C31.0046 109.081 31.0158 108.992 31.0281 108.903C30.9012 108.84 30.7832 108.752 30.6897 108.654C30.3148 108.26 30.0874 107.672 29.8742 107.165L29.8251 107.049C29.5937 106.508 29.38 105.961 29.2699 105.38L29.2593 105.327C29.2091 105.079 29.1099 104.641 29.3722 104.521C29.5091 104.459 29.5958 104.503 29.6404 104.64C29.6461 104.658 29.6414 104.678 29.6315 104.693C29.7395 104.859 29.9086 105.014 30.0154 105.167L30.3811 105.69L30.5618 105.953C30.791 106.29 31.0358 106.613 31.2884 106.931C31.4875 105.534 31.7313 104.141 32.1108 102.781ZM47.1044 133.926C47.5618 133.568 48.3062 133.762 48.3062 134.424C48.3062 135.088 47.5607 135.279 47.1044 134.921L47.0817 134.904L47.0599 134.886C46.8115 134.692 46.8031 134.187 47.0411 133.976L47.0599 133.961C47.0743 133.948 47.0888 133.937 47.1044 133.926ZM27.2201 132.636C27.4271 132.636 27.6196 132.688 27.7987 132.793C27.8766 132.852 27.9534 132.912 28.0313 132.972C28.1738 133.114 28.2717 133.283 28.3262 133.478L28.3675 133.783C28.3729 133.941 28.3407 134.088 28.2683 134.225C28.2216 134.367 28.1426 134.491 28.0313 134.594C27.9267 134.707 27.8043 134.786 27.662 134.831C27.5364 134.898 27.4025 134.931 27.2594 134.931L27.2201 134.93C27.0121 134.93 26.8195 134.878 26.6403 134.773C26.5625 134.714 26.4857 134.654 26.4078 134.594C26.2665 134.452 26.1674 134.283 26.113 134.088C26.0995 133.987 26.0863 133.884 26.0717 133.783C26.0663 133.625 26.0995 133.478 26.1708 133.341C26.2175 133.199 26.2965 133.075 26.4078 132.972C26.5125 132.859 26.6348 132.78 26.7772 132.735C26.9027 132.669 27.0375 132.635 27.1808 132.635L27.2201 132.636ZM79.2714 130.519L79.5631 130.558C79.8424 130.622 80.0671 130.827 80.2173 131.062C80.2975 131.188 80.3408 131.324 80.3475 131.469C80.3799 131.614 80.3731 131.76 80.3275 131.906C80.2941 132.048 80.2285 132.173 80.1316 132.278C80.0983 132.331 80.0593 132.379 80.0149 132.421C79.9235 132.573 79.7857 132.673 79.6431 132.776C79.523 132.853 79.3927 132.894 79.2525 132.901C79.1602 132.925 79.0667 132.925 78.9732 132.901C78.8341 132.894 78.7039 132.853 78.5837 132.776C78.5126 132.721 78.4414 132.666 78.3712 132.611C78.309 132.539 78.251 132.464 78.1965 132.386C78.1599 132.301 78.1242 132.216 78.0887 132.131C78.0229 131.928 78.0552 131.748 78.0909 131.544C78.0963 131.51 78.1054 131.478 78.1176 131.445L78.1416 131.38C78.2057 131.211 78.2399 131.154 78.3534 131.007L78.3967 130.949C78.4183 130.92 78.4405 130.892 78.4659 130.866C78.537 130.793 78.6384 130.732 78.7184 130.668C78.8898 130.569 79.0745 130.52 79.2714 130.519ZM41.5282 129.807C41.6896 129.808 41.841 129.848 41.9811 129.929L42.1636 130.07C42.2749 130.183 42.3517 130.314 42.3951 130.467C42.4051 130.547 42.4163 130.627 42.4273 130.706C42.4318 130.829 42.4063 130.945 42.3494 131.053C42.3139 131.164 42.2515 131.26 42.1636 131.342C42.0825 131.429 41.9856 131.491 41.8743 131.528C41.7772 131.579 41.6727 131.605 41.5617 131.606L41.5282 131.605C41.3657 131.605 41.2144 131.564 41.0742 131.482L40.8917 131.342C40.7804 131.23 40.7036 131.097 40.6602 130.945C40.6502 130.865 40.6391 130.786 40.628 130.706C40.6235 130.582 40.6491 130.467 40.7059 130.36C40.7426 130.248 40.8038 130.152 40.8917 130.07C40.9729 129.982 41.0697 129.92 41.181 129.885C41.2782 129.833 41.3807 129.808 41.4911 129.806L41.5282 129.807ZM34.1472 129.439C34.3797 129.436 34.6157 129.502 34.806 129.637C34.9907 129.768 35.1308 129.909 35.221 130.122C35.2455 130.18 35.2699 130.236 35.2911 130.294C35.3868 130.549 35.4046 130.805 35.2722 131.054C35.1442 131.296 34.8683 131.401 34.6211 131.474C34.412 131.536 34.175 131.546 33.9669 131.472C33.8634 131.435 33.7622 131.396 33.6687 131.339C33.494 131.231 33.3994 131.103 33.2826 130.945C33.1913 130.789 33.1457 130.62 33.1457 130.44C33.1457 130.259 33.1913 130.091 33.2826 129.934C33.4616 129.628 33.7933 129.441 34.1472 129.439ZM22.3517 129.653C22.6456 129.653 22.9036 129.789 23.0807 130.018C23.2597 130.251 23.3254 130.54 23.2464 130.829C23.1629 131.133 22.9104 131.4 22.5976 131.477C22.3663 131.534 22.177 131.532 21.9466 131.493C21.7519 131.459 21.6029 131.344 21.4537 131.223C21.2834 131.084 21.2311 130.831 21.2589 130.626C21.2856 130.421 21.3803 130.288 21.5239 130.166L21.5249 130.163L21.4715 130.204C21.4916 130.186 21.5115 130.167 21.5317 130.149C21.5382 130.137 21.5438 130.125 21.5494 130.113C21.6317 129.973 21.743 129.863 21.8821 129.78C22.0279 129.696 22.1837 129.653 22.3517 129.653ZM90.8533 126.283C91.0146 126.239 91.1771 126.239 91.3385 126.283C91.4576 126.31 91.561 126.365 91.649 126.446C91.7382 126.504 91.811 126.578 91.866 126.671L91.8837 126.702C92.0107 126.918 92.0306 127.165 91.9761 127.405C91.9083 127.702 91.6346 127.973 91.3385 128.043L91.3285 128.045L91.3185 128.047C91.1984 128.085 91.077 128.091 90.9569 128.063C90.8355 128.057 90.7231 128.022 90.6197 127.955C90.4884 127.871 90.3782 127.761 90.2937 127.63C90.2268 127.526 90.1913 127.413 90.1856 127.292C90.1646 127.212 90.1646 127.132 90.1856 127.052C90.1913 126.93 90.2268 126.818 90.2937 126.713L90.436 126.53L90.4506 126.517C90.5641 126.404 90.6986 126.326 90.8533 126.283ZM79.6499 120.394C81.1087 120.394 81.1065 122.657 79.6499 122.657C78.1911 122.657 78.1932 120.394 79.6499 120.394ZM26.2386 120.108C26.3922 120.073 26.5458 120.08 26.6983 120.128C26.7906 120.167 26.8819 120.206 26.9731 120.243L27.2068 120.424C27.2502 120.461 27.2713 120.501 27.3114 120.553L27.3615 120.618C27.4339 120.715 27.4356 120.736 27.515 120.942C27.5685 121.14 27.5685 121.338 27.515 121.537C27.4893 121.632 27.4505 121.722 27.4004 121.806C27.3546 121.886 27.2999 121.956 27.2382 122.021L27.2068 122.053C27.1022 122.165 26.9787 122.244 26.8362 122.291C26.7461 122.343 26.6493 122.369 26.5458 122.369C26.3922 122.403 26.2386 122.397 26.0862 122.349C25.9939 122.31 25.9026 122.271 25.8113 122.233L25.5777 122.053L25.3974 121.819L25.3399 121.682L25.2817 121.544L25.2405 121.238C25.235 121.079 25.2672 120.932 25.3394 120.794C25.3673 120.697 25.4163 120.612 25.4874 120.541C25.5387 120.454 25.6076 120.385 25.6945 120.334C25.7656 120.262 25.8514 120.213 25.9483 120.186C26.0384 120.133 26.1352 120.108 26.2386 120.108ZM98.3934 118.491C98.5148 118.487 98.6283 118.513 98.7329 118.568C98.7696 118.581 98.8053 118.596 98.8397 118.614C98.9744 118.693 99.0812 118.8 99.1602 118.933C99.2248 119.036 99.2604 119.146 99.2659 119.265C99.2901 119.372 99.2879 119.48 99.2588 119.588L99.2492 119.62C99.2248 119.708 99.188 119.789 99.1392 119.863C99.1345 119.872 99.1291 119.881 99.1224 119.889C99.0478 120.007 98.9488 120.104 98.8264 120.176C98.6906 120.254 98.5448 120.294 98.3868 120.295C98.0719 120.295 97.8004 120.125 97.6346 119.863C97.6112 119.827 97.5979 119.78 97.5813 119.742C97.5667 119.707 97.5433 119.661 97.531 119.62C97.4888 119.462 97.4888 119.304 97.531 119.146C97.5588 119.03 97.6112 118.929 97.6902 118.843C97.7535 118.746 97.837 118.67 97.9406 118.614C98.069 118.539 98.207 118.499 98.3534 118.492L98.3934 118.491ZM36.7989 117.384C36.9529 117.342 37.1062 117.338 37.2592 117.374L37.2975 117.384C37.4198 117.413 37.5256 117.468 37.6168 117.551C37.718 117.617 37.7994 117.705 37.8582 117.814C37.9429 117.96 37.9852 118.118 37.9862 118.287C37.9852 118.456 37.9429 118.615 37.8582 118.76C37.7748 118.902 37.6624 119.013 37.5212 119.096L37.3988 119.155C37.2964 119.22 37.1873 119.254 37.0693 119.26C36.9904 119.281 36.9113 119.281 36.8335 119.26C36.7532 119.26 36.6787 119.24 36.6098 119.2C36.5341 119.179 36.4695 119.141 36.4138 119.085C36.317 119.023 36.2415 118.941 36.1858 118.837L36.0956 118.624L36.0645 118.388L36.0956 118.154L36.1447 118.038C36.1891 117.879 36.2693 117.741 36.386 117.624C36.5029 117.508 36.6409 117.428 36.7989 117.384ZM91.9839 115.507C92.1463 115.455 92.3077 115.449 92.4691 115.484C92.578 115.484 92.6804 115.512 92.7751 115.568C92.8786 115.597 92.9675 115.648 93.0433 115.724C93.1756 115.809 93.2792 115.923 93.356 116.064L93.4783 116.355C93.5517 116.543 93.525 116.82 93.4806 117.009C93.4439 117.165 93.3727 117.3 93.267 117.416C93.2135 117.506 93.1423 117.578 93.0521 117.631C92.9491 117.725 92.8302 117.791 92.6954 117.831L92.6583 117.841L92.6449 117.844C92.6426 117.846 92.6405 117.846 92.6382 117.846C92.6371 117.847 92.6348 117.847 92.6337 117.847C92.5804 117.86 92.5258 117.868 92.4691 117.87C92.3077 117.906 92.1463 117.899 91.9839 117.848C91.8882 117.808 91.7914 117.767 91.6946 117.726C91.6123 117.663 91.5309 117.6 91.4487 117.536C91.3852 117.454 91.3218 117.372 91.2584 117.29C91.1693 117.151 91.1215 117 91.1148 116.839C91.0858 116.731 91.0858 116.624 91.1148 116.516C91.1148 116.406 91.1427 116.304 91.1971 116.21C91.2461 116.059 91.3296 115.928 91.4487 115.818C91.5309 115.755 91.6123 115.691 91.6946 115.629C91.7914 115.588 91.8882 115.547 91.9839 115.507ZM21.0109 111.523C21.1788 111.477 21.3469 111.477 21.515 111.523L21.7407 111.617C21.852 111.678 21.94 111.759 22.0068 111.862C22.0914 111.953 22.148 112.061 22.177 112.185C22.2427 112.354 22.2349 112.622 22.1826 112.795C22.1237 112.991 22.0324 113.146 21.8911 113.293C21.6563 113.536 21.2956 113.606 20.9764 113.533C20.8884 113.513 20.8049 113.474 20.7292 113.426C20.4879 113.277 20.3254 113.016 20.3265 112.728C20.3265 112.697 20.3287 112.666 20.3332 112.635C20.3176 112.571 20.3119 112.505 20.3143 112.436L20.3477 112.185L20.3498 112.178C20.3944 112.019 20.4745 111.881 20.5912 111.764C20.6992 111.658 20.8251 111.58 20.969 111.534L21.0053 111.523H21.0109ZM104.98 86.5353C104.676 84.043 103.533 81.3617 100.047 82.8252L99.7881 82.9222C98.9256 83.2488 97.9204 83.6778 97.3954 84.432C97.0338 84.9517 97.1561 85.9588 97.1061 86.5652C96.8788 88.5371 97.0007 90.5061 97.2375 92.4696C97.5432 97.072 96.5755 101.84 94.649 106.023C96.5771 109.143 99.1575 112.053 102.678 113.353C102.826 109.806 103.521 106.324 104.26 102.863L104.289 102.712C104.585 101.151 104.733 99.5496 105.758 98.2515C107.843 95.9878 110.711 97.2691 112.083 93.6325C111.795 93.4867 111.954 92.9882 112.301 93.084C113.505 93.2976 113.7 91.0665 112.876 90.529C112.018 90.0056 112.882 89.0402 112.517 88.3433C112.313 88.043 111.874 88.033 111.674 87.6868C111.146 86.4128 113.789 85.5963 110.681 84.1601C110.045 83.9338 109.334 84.0742 108.692 84.0716C107.748 84.1597 106.998 84.8247 106.135 85.0339C107.075 87.4675 104.703 89.8109 102.563 87.8672C101.398 88.9681 100.096 91.4775 102.927 90.3076C104.313 89.3828 105.506 88.1873 107.114 87.6178L107.148 87.6072C107.746 87.4116 110.359 86.142 110.229 87.2408C109.25 88.1854 107.636 88.1743 106.502 88.9411C104.931 89.6679 103.926 91.429 102.045 91.4046C101.611 94.0382 104.599 92.4358 105.712 91.7095L106.021 91.5421C107.591 90.6941 109.184 89.9085 111.015 89.898C111.52 89.8947 111.518 90.6736 111.015 90.6803C108.629 90.6952 106.687 92.1864 104.688 93.2952C104.492 94.8325 106.743 94.1595 107.597 93.9327C108.493 93.8069 109.931 92.8381 110.715 93.3499C111.022 94.1376 109.673 94.0789 109.203 94.318C111.348 95.348 109.469 95.9966 108.894 94.4137L108.725 94.471C107.289 94.9536 103.807 95.947 104.221 93.5145C103.696 93.7471 103.055 93.8862 102.474 93.7571C101.026 95.8992 98.7155 95.0703 102.073 93.6102C101.317 93.2583 101.064 91.8993 101.791 91.3936C99.1477 91.2322 101.11 88.4591 102.204 87.5349C102.101 87.4305 102.001 87.324 101.908 87.2162C101.277 87.5167 100.614 87.6992 99.9045 87.7637C99.2258 87.8248 99.0746 86.6698 99.7444 86.5753C100.462 86.474 101.123 86.2826 101.755 85.9219C102.713 85.5083 103.04 87.2857 103.999 87.3486C104.522 87.4521 104.875 86.9937 104.98 86.5353ZM82.7268 109.468C82.9582 109.468 83.164 109.565 83.332 109.719C83.5 109.872 83.5724 110.103 83.5824 110.323C83.5868 110.441 83.5624 110.551 83.5089 110.653C83.4744 110.759 83.4155 110.85 83.332 110.928C83.1762 111.083 82.9459 111.179 82.7268 111.179C82.4953 111.179 82.2894 111.082 82.1213 110.928C81.9534 110.774 81.8809 110.544 81.8709 110.323C81.8665 110.206 81.8911 110.096 81.9444 109.993C81.9754 109.898 82.0263 109.814 82.097 109.742L82.1213 109.719C82.2772 109.563 82.5074 109.468 82.7268 109.468ZM89.7401 104.191L89.7772 104.192C89.9731 104.193 90.1545 104.242 90.3236 104.34C90.397 104.397 90.4705 104.452 90.5429 104.509C90.6774 104.645 90.7698 104.804 90.8211 104.988C90.8734 105.179 90.8734 105.372 90.8211 105.563C90.8033 105.673 90.7621 105.78 90.6976 105.872C90.6018 106.031 90.475 106.159 90.3147 106.254C90.1489 106.351 89.9697 106.399 89.7772 106.4C89.5848 106.399 89.4055 106.351 89.2397 106.254C89.0795 106.159 88.9526 106.031 88.858 105.872C88.7924 105.78 88.7512 105.673 88.7334 105.563C88.6811 105.372 88.6811 105.179 88.7334 104.988C88.7809 104.817 88.864 104.668 88.9834 104.539L89.0116 104.509C89.1095 104.404 89.2253 104.329 89.3599 104.285C89.4782 104.223 89.605 104.192 89.7401 104.191ZM36.2157 104.251C36.2982 104.229 36.3794 104.229 36.4618 104.251C36.5842 104.256 36.6987 104.293 36.8045 104.36C36.8668 104.409 36.9291 104.457 36.9915 104.505L37.0458 104.57C37.1619 104.711 37.1649 104.735 37.254 104.951C37.2908 105.071 37.2964 105.191 37.2697 105.311C37.2697 105.393 37.2485 105.468 37.2083 105.538C37.1862 105.615 37.1484 105.682 37.0916 105.738C37.0514 105.805 36.9981 105.86 36.9301 105.9C36.8435 105.979 36.7411 106.034 36.6231 106.061L36.3838 106.094C36.3527 106.089 36.3205 106.085 36.2893 106.081C36.2517 106.08 36.2153 106.076 36.1795 106.069L36.1434 106.061L36.1105 106.052C36.0669 106.04 36.0245 106.023 35.9833 106.001C35.9054 105.979 35.8375 105.94 35.7795 105.882C35.6795 105.818 35.5994 105.731 35.5415 105.623L35.5259 105.587C35.5048 105.549 35.487 105.511 35.4735 105.468C35.4358 105.401 35.4169 105.33 35.4158 105.253C35.3936 105.151 35.3951 105.05 35.4216 104.949L35.4313 104.915L35.517 104.711C35.5615 104.643 35.6083 104.572 35.6683 104.516C35.7044 104.484 35.7928 104.415 35.8425 104.38L35.873 104.36C35.9788 104.293 36.0935 104.256 36.2157 104.251ZM24.239 102.28C24.6896 102.731 24.4905 103.558 23.8597 103.719L23.7872 103.737C23.1774 103.891 22.6277 103.34 22.7824 102.731L22.8002 102.659C22.9604 102.028 23.7883 101.829 24.239 102.28ZM99.178 97.5129C99.1735 97.4506 99.2537 97.4285 99.2937 97.4652C99.8301 97.9459 100.172 98.5223 100.823 98.895C101.477 99.269 102.151 99.2389 102.833 99.4803C103.065 99.5627 103.066 99.8722 102.833 99.9533C101.543 100.404 99.2759 98.8761 99.178 97.5129ZM38.526 97.415C38.6696 97.3705 38.8143 97.3639 38.9578 97.3961C39.0558 97.3961 39.1469 97.4206 39.2303 97.4695C39.3227 97.4952 39.4018 97.5419 39.4696 97.6086C39.5509 97.6565 39.6155 97.7222 39.6643 97.8033C39.7601 97.908 39.8247 98.0304 39.858 98.1706L39.8958 98.4588L39.858 98.747C39.8212 98.8326 39.7845 98.9195 39.7489 99.0052L39.6495 99.1399C39.5689 99.2474 39.556 99.2485 39.3605 99.3936C39.236 99.4725 39.1014 99.516 38.9578 99.5215C38.862 99.5482 38.7663 99.5482 38.6696 99.5215C38.5728 99.5215 38.4814 99.4971 38.397 99.4481C38.3056 99.4225 38.2256 99.3758 38.1576 99.309C38.0398 99.2322 37.9474 99.131 37.8794 99.0052C37.8427 98.9195 37.8061 98.8326 37.7705 98.747L37.7314 98.4588L37.7705 98.1706L37.7726 98.1617C37.8238 97.9815 37.9152 97.8245 38.0463 97.692L38.2623 97.5251C38.3468 97.4707 38.4347 97.4429 38.526 97.415ZM90.4717 97.6311C90.7798 97.5464 91.1182 97.6355 91.344 97.8615C91.57 98.0873 91.659 98.4244 91.5744 98.7328C91.491 99.0332 91.2495 99.2768 90.9479 99.3581C90.8578 99.3825 90.7666 99.396 90.6742 99.3915C90.5194 99.3904 90.3749 99.3514 90.2402 99.2736L90.0666 99.1388C89.9819 99.061 89.9231 98.9687 89.8885 98.8618C89.8339 98.7595 89.8095 98.6493 89.8139 98.5302L89.8129 98.5091C89.8095 98.4668 89.815 98.4244 89.8285 98.3833C89.8285 98.3398 89.8352 98.2976 89.8463 98.2564C89.9275 97.956 90.1723 97.7133 90.4717 97.6311ZM24.0209 94.6178C24.1199 94.6143 24.2123 94.6344 24.298 94.68C24.3881 94.7089 24.4649 94.7579 24.5294 94.8291C24.6007 94.8936 24.6496 94.9715 24.6786 95.0606C24.7242 95.1464 24.7442 95.2387 24.7409 95.3376C24.7409 95.4678 24.7075 95.5891 24.6429 95.7004C24.6051 95.7495 24.5673 95.7983 24.5294 95.8462C24.4404 95.9363 24.3347 95.9975 24.2123 96.032L24.1411 96.0565C24.0365 96.0943 23.9341 96.0966 23.8251 96.0822C23.7104 96.0665 23.6046 96.0354 23.5112 95.9641C23.4199 95.9107 23.3477 95.8384 23.2943 95.7471L23.2331 95.6025C23.2197 95.5536 23.2141 95.4802 23.2108 95.4289C23.2108 95.4211 23.2108 95.4145 23.2097 95.4066C23.2097 95.3632 23.223 95.2576 23.2341 95.2141C23.2586 95.1229 23.3086 95.0361 23.3655 94.9626C23.4144 94.886 23.4812 94.8258 23.5635 94.7813L23.5709 94.7757L23.5791 94.7701C23.6046 94.7523 23.6314 94.7345 23.6581 94.7155C23.7694 94.6511 23.8907 94.6178 24.0209 94.6178ZM81.4838 93.8278C81.6618 93.8278 81.8276 93.8734 81.9812 93.9625C81.9866 93.9646 81.9922 93.9669 81.9966 93.9692C82.1436 94.0559 82.2604 94.1729 82.3473 94.3197C82.4363 94.4721 82.4807 94.6369 82.4807 94.8127C82.4807 94.9896 82.4363 95.1531 82.3473 95.3056C82.2604 95.4526 82.1436 95.5693 81.9966 95.6562C81.9922 95.6594 81.9866 95.6616 81.9812 95.6639C81.8276 95.7529 81.6618 95.7974 81.4838 95.7985C81.3068 95.7974 81.141 95.7529 80.9874 95.6639C80.687 95.4881 80.4988 95.1598 80.4988 94.8127C80.4988 94.4653 80.687 94.1372 80.9874 93.9625C81.141 93.8734 81.3068 93.8278 81.4838 93.8278ZM35.272 92.5408L35.3023 92.5402C35.4203 92.5356 35.5303 92.5601 35.6316 92.6147C35.7373 92.6491 35.8296 92.7082 35.9077 92.7917L36.0701 92.9273L36.1173 92.9655C36.125 92.972 36.1327 92.9786 36.1401 92.9853C36.2493 93.0953 36.3238 93.2244 36.3661 93.3735C36.3795 93.4593 36.3905 93.5438 36.3995 93.6295C36.4239 93.852 36.2927 94.0803 36.148 94.2383C36.0701 94.3217 35.9776 94.3806 35.8709 94.4162C35.7686 94.4697 35.6573 94.4941 35.5392 94.4896C35.2977 94.4686 35.0686 94.4173 34.895 94.2304C34.8749 94.2081 34.856 94.1847 34.836 94.1614L34.6969 94.0011C34.5912 93.8944 34.5177 93.7686 34.4777 93.6239C34.4665 93.5471 34.4566 93.4715 34.4466 93.3958C34.4364 93.1677 34.5477 92.954 34.6969 92.7917C34.8347 92.6412 35.0684 92.5492 35.272 92.5408ZM29.655 90.1975C30.8122 90.1975 30.8099 91.9926 29.655 91.9926C28.4987 91.9926 28.5009 90.1975 29.655 90.1975ZM87.8401 87.6812L87.8766 87.6819C88.0681 87.683 88.2471 87.7308 88.4131 87.8277L88.6288 87.9935C88.7602 88.127 88.8514 88.2828 88.9027 88.4631C88.9148 88.5575 88.9272 88.6522 88.9405 88.7457C88.9461 88.8926 88.9148 89.0295 88.8482 89.1563C88.8059 89.2876 88.7324 89.4021 88.6288 89.4991C88.5321 89.6025 88.4185 89.676 88.2862 89.7183C88.1593 89.785 88.0225 89.8162 87.8766 89.8106C87.6842 89.8094 87.5049 89.7617 87.3391 89.6649C87.2669 89.6092 87.1957 89.5536 87.1233 89.4991C87.0021 89.3758 86.9151 89.2336 86.863 89.0706L86.8507 89.0295L86.8118 88.7457C86.8062 88.5999 86.8373 88.4631 86.904 88.3362C86.9464 88.2038 87.0199 88.0903 87.1233 87.9935C87.2202 87.8899 87.3348 87.8164 87.4661 87.7742C87.5823 87.713 87.7071 87.6817 87.8401 87.6812ZM82.6276 84.321C82.7311 84.3175 82.8268 84.3387 82.917 84.3855C83.0093 84.4154 83.0894 84.4677 83.1573 84.5401C83.301 84.6548 83.3888 84.8839 83.3888 85.0698C83.3888 85.2556 83.301 85.4849 83.1573 85.5994C83.0638 85.6918 82.9537 85.7563 82.8268 85.7919L82.6276 85.8188C82.434 85.8277 82.237 85.7264 82.099 85.5994C82.0712 85.574 82.0445 85.5484 82.0167 85.5238C81.8911 85.408 81.8365 85.2356 81.8286 85.0698C81.8253 84.982 81.8443 84.8996 81.8843 84.8228C81.91 84.7427 81.9544 84.6747 82.0167 84.6157C82.0445 84.5913 82.0712 84.5658 82.099 84.5401C82.2494 84.401 82.4251 84.331 82.6276 84.321ZM115.653 78.3356C116.384 77.4449 115.958 76.811 114.859 77.0313C112.966 77.2873 111.185 78.4836 109.518 79.3414C107.698 80.3024 105.823 81.095 103.967 81.9981C104.733 82.4681 105.303 83.2042 105.738 84.0441C106.606 83.3846 107.716 83.0692 108.8 83.0282C110.766 81.1451 114.023 80.7139 115.653 78.3356ZM29.2655 81.2917C29.4638 81.2926 29.6496 81.3392 29.8236 81.4323L29.8608 81.4529L30.0989 81.6377C30.2146 81.7445 30.2959 81.8712 30.3437 82.0171C30.4172 82.1573 30.4505 82.3098 30.445 82.4722C30.4505 82.6347 30.4172 82.786 30.3437 82.9263C30.2959 83.0731 30.2146 83.1989 30.0989 83.3057C30.0332 83.3914 29.9487 83.4582 29.8474 83.5072C29.7527 83.5461 29.6594 83.5861 29.5648 83.6262C29.4591 83.6596 29.3366 83.664 29.222 83.6696C29.0139 83.6685 28.8204 83.6162 28.6399 83.5116L28.4064 83.3314C28.294 83.2267 28.2137 83.1032 28.167 82.9596C28.1008 82.8333 28.0672 82.6983 28.0672 82.5541L28.0681 82.5145C28.0681 82.5057 28.0681 82.4956 28.0693 82.4856C28.0825 82.381 28.0971 82.2764 28.1114 82.1719C28.1482 82.0182 28.2183 81.8836 28.3229 81.7701C28.3496 81.7167 28.3852 81.6733 28.431 81.6377C28.5777 81.4908 28.7512 81.3906 28.9516 81.3338C29.0562 81.3205 29.1608 81.3059 29.2655 81.2917ZM80.9317 78.3441C81.082 78.3441 81.2211 78.3819 81.3502 78.4564C81.4069 78.5 81.4625 78.5432 81.5182 78.5866C81.6218 78.6901 81.693 78.8125 81.7318 78.9527L81.762 79.173C81.7652 79.2877 81.7418 79.3934 81.6895 79.4926C81.6563 79.5948 81.5994 79.6838 81.5182 79.7595C81.4436 79.8406 81.3547 79.8975 81.2512 79.9309C81.1532 79.9832 81.0463 80.0065 80.9317 80.0022C80.7826 80.0022 80.6424 79.9643 80.5133 79.8886C80.4577 79.8463 80.4009 79.8029 80.3453 79.7595C80.2515 79.6646 80.1838 79.5539 80.1432 79.4281L80.1328 79.3934L80.1028 79.173C80.0984 79.0585 80.1217 78.9527 80.1739 78.8537C80.2073 78.7503 80.2653 78.6612 80.3453 78.5866C80.421 78.5053 80.5101 78.4487 80.6125 78.4153C80.7015 78.3682 80.7969 78.3446 80.8979 78.3436L80.9317 78.3441ZM35.7697 77.1381L35.8086 77.1387C36.03 77.1398 36.2359 77.1955 36.4273 77.3067C36.5096 77.3703 36.5921 77.4337 36.6743 77.4982C36.8267 77.6506 36.9313 77.8309 36.9904 78.0389L37.0337 78.3639C37.0404 78.533 37.0048 78.6899 36.928 78.8357C36.8792 78.9883 36.7945 79.1195 36.6743 79.2307C36.5642 79.3499 36.4328 79.4344 36.2804 79.4834C36.1346 79.5601 35.9777 79.5958 35.8086 79.589C35.5871 79.589 35.3812 79.5334 35.1898 79.4221C35.1076 79.3587 35.0253 79.2943 34.9418 79.2307C34.7904 79.0772 34.6858 78.8969 34.6268 78.6899L34.5834 78.3639C34.5767 78.1958 34.6123 78.0379 34.6891 77.8921C34.7381 77.7408 34.8226 77.6083 34.9418 77.4982C35.0531 77.3781 35.1843 77.2934 35.3367 77.2444C35.4713 77.1735 35.6153 77.1387 35.7697 77.1381ZM76.9737 74.0793C77.0749 74.0525 77.1761 74.0525 77.2773 74.0793C77.4287 74.0858 77.5701 74.1315 77.7014 74.2149L77.9318 74.3931C77.935 74.3963 77.9384 74.3998 77.9418 74.4042C78.0809 74.5443 78.1776 74.7102 78.231 74.9005L78.2712 75.1999C78.2767 75.3545 78.2445 75.4991 78.1744 75.6327C78.1325 75.7611 78.0635 75.8728 77.9684 75.9694L77.9318 76.0054C77.8282 76.1167 77.7069 76.1957 77.5655 76.2413C77.4766 76.2937 77.3797 76.3193 77.2773 76.3193C77.1261 76.3537 76.9737 76.3471 76.8222 76.2992C76.7322 76.2602 76.6408 76.2224 76.5497 76.1847L76.5206 76.1679C76.1768 75.9799 75.9643 75.586 75.9643 75.1999C75.9643 74.8136 76.1768 74.4186 76.5206 74.2305C76.5308 74.2262 76.5396 74.2205 76.5497 74.2149C76.681 74.1315 76.8222 74.0858 76.9737 74.0793Z" fill="black"/>
<path fill-rule="evenodd" clip-rule="evenodd" d="M61.0266 19.3135C67.345 19.3135 75.5009 23.277 76.1964 27.3363C77.016 32.1201 81.4049 50.4763 80.4139 56.3628C79.4228 62.2493 74.0821 66.4869 65.5362 66.4869C56.9902 66.4869 50.6115 61.8264 49.147 60.2262C47.6824 58.626 44.9682 52.9129 44.9682 52.9129C44.9682 52.9129 40.3925 52.3044 40.3708 48.5745C40.3491 44.8446 43.3457 43.4875 43.3457 43.4875C43.3457 43.4875 42.2773 28.7678 44.9682 24.9355C47.6591 21.1031 54.7081 19.3135 61.0266 19.3135Z" fill="white"/>
<path fill-rule="evenodd" clip-rule="evenodd" d="M75.8098 26.6815C75.8052 26.5959 75.9298 26.5859 75.9532 26.6616C77.3164 31.165 78.1566 34.6746 79.0412 39.2916L79.3024 40.6498C80.0005 44.2723 80.7058 47.9 81.3013 51.54L81.3363 51.7573C81.6346 53.6415 81.8066 55.5441 81.4326 57.4322C81.0832 59.197 80.1285 60.815 78.8888 62.1036C76.493 64.5941 73.1635 66.1497 69.8141 66.8452C68.1205 67.1968 66.3734 67.3326 64.6475 67.2102C63.7872 67.15 62.9282 67.0287 62.0859 66.8496L61.9929 66.8297C61.1438 66.6464 60.3902 66.4278 59.9392 65.6288C59.8258 65.4275 59.8714 65.0825 60.1096 64.979C60.5591 64.7853 60.8896 64.7042 61.3802 64.7598C61.8487 64.8131 62.3062 64.9546 62.7691 65.0425C63.6538 65.2105 64.5529 65.295 65.4531 65.3151C67.2213 65.354 68.994 65.1326 70.6843 64.6051C73.5885 63.6982 76.5397 61.9634 78.2367 59.3684C80.2329 56.3157 79.4381 52.6108 78.9091 49.2396L78.8932 49.1375C78.3576 45.6916 77.8282 42.2458 77.3142 38.7977L77.0949 37.3198C76.5186 33.415 75.9745 30.6275 75.8098 26.6815ZM46.3222 17.1242C47.7717 16.1688 49.573 15.934 51.2755 15.9472L51.4887 15.9499C53.6688 15.9831 64.6427 16.2442 68.3169 16.3246L69.1909 16.343C70.3478 16.3648 72.681 16.3876 73.8831 16.4096L73.9525 16.4109C74.5423 16.422 75.132 16.4265 75.7218 16.4454L75.8083 16.4485C76.2501 16.4674 76.6177 16.5335 76.9637 16.8449C77.1396 17.0027 77.2083 17.2434 77.1922 17.4727L77.1896 17.5025L78.0653 17.5793C78.66 17.6319 78.9744 18.1652 78.7382 18.7049L78.7263 18.731C78.3068 19.6257 77.9863 22.2296 77.7615 23.1922C77.6436 23.6985 77.5489 24.2126 77.4932 24.73C77.4488 25.1374 77.4444 25.5457 77.2174 25.904C76.7332 26.6685 75.3713 26.6618 75.3468 25.5791C75.3457 25.5446 75.3468 25.5112 75.3501 25.4789C71.9228 25.3287 67.2435 25.3432 63.8206 25.5479C60.6236 25.7393 57.4411 26.1733 54.3086 26.8376C53.5152 27.0057 52.724 27.1893 51.9384 27.3885C51.2941 27.5509 50.5029 27.6477 49.9265 27.996C49.2811 28.3877 49.2933 29.0899 49.3634 29.7587C49.4387 30.4675 49.5641 30.1023 49.7419 30.7483L49.7529 30.7891C49.9365 31.4902 50.1635 32.1834 50.4639 32.8422C50.6353 33.2183 50.9114 33.58 50.8067 34.0128C50.7477 34.2565 50.5551 34.5169 50.3783 34.6872C49.5725 35.4606 48.2106 34.9676 47.6631 36.027C47.0901 37.1347 47.0759 38.6353 47.0272 39.861L47.0243 39.9328C46.9888 40.7774 46.9988 41.6242 47.0544 42.4666C47.1045 43.2343 47.3091 43.9945 47.0466 44.7322C46.8551 45.2686 46.2298 45.3187 45.9027 44.8825C45.8651 44.8324 45.8307 44.7811 45.7984 44.7294L45.7669 44.6777L45.7648 44.6788C45.7958 44.7278 45.8248 44.778 45.8526 44.829C45.8826 44.8858 45.8081 44.9481 45.7625 44.8992C44.9924 44.0612 43.8674 44.2281 42.9961 44.8146C42.1136 45.411 41.7653 46.5438 41.7197 47.5599C41.6685 48.6869 41.7687 50.008 42.2383 51.0495C42.4364 51.4901 42.7189 51.8952 43.1875 52.0632C43.4001 52.1389 43.6025 52.1289 43.824 52.1467C44.0542 52.1644 44.3314 52.2802 44.555 52.2646C44.8456 52.244 45.1066 52.5758 45.024 52.8538L45.018 52.8722C45.0137 52.8856 45.0091 52.8989 45.0048 52.9112C45.0158 52.9212 45.0269 52.9334 45.0347 52.9512C45.8804 54.6794 47.0399 56.2172 48.3218 57.6438C48.964 58.3571 49.6761 59.0125 50.4205 59.619C50.7878 59.9183 51.175 60.2178 51.5834 60.4591C51.7192 60.538 51.8437 60.5916 51.9964 60.6351C52.0675 60.655 52.1487 60.665 52.2177 60.6884L52.2893 60.7129C52.2942 60.7145 52.2989 60.716 52.3034 60.7173C52.5081 60.7407 52.6806 60.8764 52.7485 61.089C52.9254 61.6431 52.6038 62.1328 52.0541 62.2852C51.4585 62.4518 50.8973 62.1593 50.4252 61.8236L50.3938 61.8012C49.4313 61.108 48.5444 60.3301 47.7766 59.422C46.2576 57.6293 45.3061 55.554 44.8657 53.2584C44.7565 53.4931 44.6096 53.6979 44.3548 53.8403C43.9586 54.0629 43.4857 54.0629 43.0517 53.9883C42.1782 53.8403 41.4337 53.3073 40.9363 52.5862C40.4199 51.8384 40.2275 50.9304 40.1106 50.0458C39.9949 49.1599 39.9382 48.2709 40.0539 47.3829C40.2198 46.1076 40.7549 44.8469 41.7954 44.148C41.0164 42.451 40.8796 40.5482 40.9352 38.6898C41.0031 36.402 41.3981 34.0885 41.7019 31.8218L42.5655 25.3777V25.3777L42.6009 25.1179C42.8093 23.6019 43.063 22.0779 43.6304 20.6495C44.1901 19.2418 45.0403 17.9688 46.3222 17.1242ZM42.688 47.61C44.1145 46.9179 45.6557 47.5555 46.4236 48.8986C47.0912 50.0664 45.1062 50.8382 44.775 49.6345L44.7655 49.5974C44.5474 48.6861 43.6593 47.8982 42.7325 47.7758C42.6557 47.7648 42.5988 47.6535 42.688 47.61Z" fill="black"/>
<path fill-rule="evenodd" clip-rule="evenodd" d="M57.2793 48.5899C57.6664 47.7162 59.4087 46.3595 59.4087 46.3595C59.4087 46.3595 59.9376 49.3614 59.5275 50.2872C59.1894 51.0504 57.9719 52.4278 57.0791 52.0405C56.1863 51.6532 56.6432 50.026 57.2793 48.5899Z" fill="white"/>
<path fill-rule="evenodd" clip-rule="evenodd" d="M78.9398 47.8C78.6216 47.0616 77.1893 45.915 77.1893 45.915C77.1893 45.915 76.7546 48.4521 77.0917 49.2344C77.3697 49.8795 78.3705 51.0435 79.1044 50.7162C79.8383 50.3889 79.4627 49.0137 78.9398 47.8Z" fill="white"/>
<path fill-rule="evenodd" clip-rule="evenodd" d="M64.107 52.1083H73.8813L74.4661 53.7236C74.4661 53.7236 67.1723 55.4164 64.6111 54.3267L64.107 52.1083Z" fill="white"/>
<path fill-rule="evenodd" clip-rule="evenodd" d="M71.3172 48.9714C72.2211 47.7051 70.9408 46.5141 70.1005 46.0034C69.8803 45.8453 70.055 45.3219 70.5255 45.4028C74.7982 46.1369 72.5844 53.4969 67.1291 49.4581C66.4796 48.9341 67.2661 47.7801 67.9662 48.2288C68.0016 48.256 68.0389 48.2848 68.0776 48.3148L68.0777 48.3148C68.8641 48.9229 70.3031 50.0354 71.3172 48.9714ZM62.7173 36.2259L62.5084 36.2624C61.8322 36.3799 61.1635 36.6361 60.5523 36.9449C59.4073 37.5234 58.2641 38.4725 57.6742 39.6279C57.6102 39.7533 57.7471 39.9248 57.8812 39.8349C58.9031 39.1494 59.878 38.5251 61.0744 38.1832C61.6198 38.0273 62.164 37.9336 62.7301 37.9011C62.9057 37.8911 63.0777 37.8953 63.2462 37.8995C63.7371 37.9117 64.1975 37.9231 64.6243 37.5776C64.9502 37.3139 64.8668 36.8018 64.6243 36.5263C64.1671 36.0067 63.3635 36.1141 62.7173 36.2259ZM73.8634 35.7776L73.7035 35.7449C73.5155 35.7073 73.3264 35.7232 73.1603 35.7908C72.9974 35.857 72.8554 35.9725 72.7563 36.139C72.6244 36.3608 72.6068 36.5469 72.668 36.7927C72.7152 36.9827 72.8188 37.1256 72.9543 37.2288C73.0971 37.3375 73.2782 37.401 73.4661 37.423C74.3335 37.5249 75.1876 37.7157 76.018 37.9865C76.4071 38.1135 76.7742 38.2854 77.1382 38.4639L77.4518 38.6184C77.7412 38.7599 78.04 38.8963 78.4177 38.9953C78.4474 39.003 78.4767 39.0104 78.5058 39.0173C78.5982 38.9883 78.6229 38.9539 78.6427 38.9264L78.6505 38.9157L78.6595 38.9044C78.6865 38.8706 78.7197 38.8188 78.6883 38.5771C77.8643 36.8679 75.6035 36.1414 73.8634 35.7776ZM64.8108 44.1843C64.4728 44.3817 64.1115 44.286 63.8235 44.0569C63.6453 43.9152 63.5102 43.734 63.3747 43.5524L63.3747 43.5524C63.2159 43.3394 63.0567 43.1259 62.8273 42.975C62.4677 42.7382 61.9856 42.7257 61.5721 42.7941C60.9513 42.8969 60.4153 43.1898 59.8778 43.4836C59.5734 43.6499 59.2685 43.8166 58.9474 43.9491C58.8229 44.0005 58.75 43.8408 58.7918 43.7468C59.3297 42.5379 60.4529 41.4596 61.7889 41.2436C63.186 41.0177 64.6974 41.9378 65.1852 43.2642C65.3083 43.5988 65.1038 44.0132 64.8108 44.1843ZM78.0844 42.7756C78.1132 42.7863 78.1423 42.7538 78.1338 42.7262C77.7806 41.5772 76.4501 41.0934 75.3334 41.1892C74.6424 41.2485 74.0072 41.5013 73.4833 41.9626C72.9837 42.4027 72.5945 43.2355 73.0468 43.8444C73.5118 44.4705 74.4663 44.2681 74.5207 43.4453C74.5559 42.9117 75.4741 42.5824 75.9392 42.5003C76.6615 42.3729 77.4087 42.5251 78.0844 42.7756ZM65.1508 53.7969C65.478 53.9264 68.2443 54.0536 69.8779 53.9791C70.9918 53.929 73.8812 53.2538 73.8812 52.9641C73.8812 52.6743 73.7582 52.4126 73.6524 52.4236C73.2226 52.47 69.799 52.5077 67.3884 52.5343H67.3884C66.3232 52.546 65.4559 52.5556 65.1319 52.5627C64.9728 52.5662 64.8058 52.5627 64.6367 52.5583C64.5195 52.9208 64.8236 53.6673 65.1508 53.7969ZM70.6889 51.6884H70.6889H70.6889C71.9749 51.6773 73.5366 51.6637 74.6495 51.7294C75.0467 51.7527 75.2426 52.3203 75.2704 52.5895C75.5341 55.0922 73.5356 57.0885 71.3289 57.8619C69.2814 58.5796 66.5774 58.7154 64.7513 57.3745C63.9579 56.7925 63.357 55.9857 62.9653 55.0877C62.7539 54.6037 62.5992 54.1018 62.5135 53.581C62.5053 53.5318 62.4963 53.4804 62.487 53.4274C62.4211 53.0532 62.3413 52.6001 62.469 52.2579C62.654 51.7657 63.1436 51.7603 63.5934 51.7553C63.6306 51.7549 63.6676 51.7545 63.7042 51.7538C63.8852 51.7502 64.0663 51.7462 64.2474 51.7423C64.725 51.7319 65.2025 51.7216 65.6793 51.716C66.7057 51.7044 67.732 51.7014 68.7579 51.6984L68.7602 51.6984C69.1161 51.6973 69.472 51.6963 69.8278 51.6949C70.0927 51.6936 70.383 51.6911 70.6889 51.6884ZM59.1516 49.8691C58.9845 50.5109 58.6325 51.2573 58.0359 51.607C57.7165 51.7943 57.2429 51.8633 57.0588 51.4786C56.7155 50.7607 57.1969 49.6538 57.4893 49.0082C57.7344 48.4665 58.0435 47.9496 58.418 47.487C58.6234 47.2332 58.8511 47.0002 59.0802 46.7681C59.1251 46.7226 59.1733 46.6806 59.2211 46.6389C59.2881 46.5807 59.3541 46.5232 59.4087 46.4581C59.241 46.8344 59.2342 47.3256 59.2325 47.6978C59.2316 47.899 59.2392 48.1 59.2468 48.3007C59.2667 48.8269 59.2866 49.3508 59.1516 49.8691ZM60.2501 46.2562C60.2225 46.0372 60.0234 45.8914 59.8105 46.004C59.6867 46.0695 59.5906 46.1621 59.5143 46.2708C59.5159 46.2659 59.5176 46.2612 59.5193 46.2564C59.5227 46.2468 59.5262 46.2373 59.5285 46.2269C59.5324 46.2094 59.5233 46.185 59.5031 46.182C59.0102 46.108 58.3788 46.7906 58.0315 47.1661L58.0315 47.1661C58.0069 47.1926 57.9838 47.2176 57.9623 47.2407C57.4716 47.7661 57.0335 48.3711 56.7322 49.0255C56.3481 49.8602 55.9333 51.1218 56.461 51.9869C57.195 53.19 58.733 52.2823 59.3161 51.4512C59.8046 50.7548 60.0572 49.9059 60.0856 49.0603C60.0939 48.8116 60.0841 48.563 60.0743 48.3144C60.065 48.079 60.0557 47.8437 60.0618 47.6082C60.0669 47.4108 60.1139 47.212 60.1607 47.0142C60.2212 46.7584 60.2814 46.5041 60.2501 46.2562ZM77.8363 50.3004C78.1805 50.6154 78.7785 50.7321 79.1785 50.4349C79.7099 50.0401 79.2518 49.3142 78.9588 48.8498C78.9292 48.803 78.9014 48.7588 78.8764 48.7179C78.4731 48.0585 78.0759 47.3958 77.6814 46.7311C77.61 46.6107 77.5255 46.4846 77.438 46.3544C77.4098 46.542 77.3743 46.7258 77.3417 46.8945C77.3131 47.0421 77.2868 47.178 77.2697 47.2947C77.1254 48.2785 77.0231 49.5562 77.8363 50.3004ZM79.2756 47.4693C79.6656 48.0837 80.0752 48.729 80.2532 49.4059C80.5986 50.7199 79.4584 51.6842 78.1946 51.402C76.8759 51.1076 76.3863 49.5739 76.4141 48.376C76.4269 47.8246 76.5416 47.2656 76.6531 46.7223C76.6684 46.6478 76.6836 46.5736 76.6985 46.4998C76.7289 46.3492 76.7509 46.1932 76.7731 46.0363C76.804 45.8176 76.8352 45.5971 76.8895 45.3868C76.8276 45.2159 76.7912 45.0429 76.7977 44.8699C76.8079 44.5947 77.084 44.4485 77.3236 44.5681C77.6643 44.7383 77.8415 45.0542 78.0215 45.3752C78.0584 45.4409 78.0953 45.5069 78.1339 45.5718L78.9225 46.9009C79.0331 47.0874 79.1534 47.2768 79.2756 47.4693Z" fill="black"/>
</g>
</svg>
