<svg width="133" height="132" viewBox="0 0 133 132" fill="none" xmlns="http://www.w3.org/2000/svg">
<circle cx="66.9244" cy="65.938" r="65.938" fill="#4089CB"/>
<mask id="mask0_647_336" style="mask-type:alpha" maskUnits="userSpaceOnUse" x="0" y="0" width="133" height="132">
<circle cx="66.9244" cy="65.938" r="65.938" fill="#4089CB"/>
</mask>
<g mask="url(#mask0_647_336)">
<path fill-rule="evenodd" clip-rule="evenodd" d="M118.393 84.2481C116.804 84.4041 115.215 84.5599 113.627 84.7159C106.016 85.2974 98.4094 86.5116 90.8575 87.2404C90.6695 86.9344 90.3015 86.9848 90.078 87.1974C89.3245 87.1314 88.4799 86.5555 87.7973 87.1546C87.7751 87.1515 87.753 87.1478 87.7306 87.1457C86.5152 84.813 85.6751 82.3249 84.8597 79.8335C84.3393 78.3018 83.6391 76.819 82.3452 75.7906C80.137 74.2577 75.0774 71.1494 72.4845 71.28C72.4415 70.8158 72.2251 70.3373 71.8697 70.0281C72.6529 68.6929 69.5214 67.8217 69.3005 67.9765C69.4421 63.5156 67.3437 59.6416 62.7168 58.7532C58.5716 57.8895 52.6758 57.7444 50.4465 62.0763C50.2014 62.0487 47.6964 62.0357 47.454 62.0628C47.0772 61.5856 42.9388 66.1081 44.635 67.6826C29.4708 74.3907 20.8485 73.5903 16.6513 92.4484C16.0839 94.22 16.0426 96.1585 15.4434 97.8906C13.3117 102.868 11.5827 108.168 11.1524 113.585C10.1131 113.851 9.99361 115.683 11.1974 115.948C11.6572 116.05 12.0417 116.188 12.377 116.451C12.1149 120.889 13.1884 131.028 13.8648 130.997C15.2439 135.386 21.3955 136.625 25.7506 135.082C24.9999 136.495 25.7506 137.383 25.7506 138.137C41.4216 138.73 58.5561 138.389 74.2227 139.202C76.2268 139.173 78.3346 139.694 80.3112 139.394C81.5167 139.105 81.5187 137.21 80.296 136.976L85.6387 135.815C85.5193 135.77 87.841 134.226 89.5958 131.34C91.2291 128.112 90.1175 124.215 90.8575 120.704C96.6378 120.231 102.514 120.029 108.231 119.05C109.01 121.382 112.385 118.593 113.457 117.471C113.456 117.469 113.454 117.468 113.453 117.466C113.972 117.324 114.388 116.837 114.402 116.261C114.766 115.741 114.843 115.008 114.494 114.505C116.094 105.273 118.533 95.8464 119.415 86.5271C119.726 86.4581 120.02 86.3214 120.269 86.1109L120.248 86.0908C120.67 85.6207 120.752 84.8094 120.049 84.41C119.482 84.0875 119.009 84.1876 118.393 84.2481Z" fill="white"/>
<path fill-rule="evenodd" clip-rule="evenodd" d="M57.9605 118.803L59.1845 119.582L69.1995 122.809L75.3198 123.588L80.3273 122.809V131.377L81.3288 139.389C80.8837 140.205 76.6552 140.205 68.6431 139.389C63.5357 138.869 44.8693 138.617 40.6194 138.506L40.3785 138.499C35.3844 138.355 30.4511 138.355 25.5786 138.499V135.494L39.4883 128.595L51.9515 121.585L57.9605 118.803ZM50.8642 61.3757L51.784 62.0625L49.7757 65.3619L59.5585 73.275V79.5955L62.6557 82.5248L64.426 79.5955L66.9205 76.2781L68.6932 70.9007L68.0896 67.358L69.3035 67.2437C69.3094 67.4858 69.3084 67.7301 69.3006 67.9762C69.5214 67.8214 72.653 68.6926 71.8698 70.0278C72.2251 70.337 72.4415 70.8155 72.4845 71.2797C75.0775 71.1491 80.1371 74.2574 82.3453 75.7903C83.6392 76.8187 84.3394 78.3015 84.8598 79.8332L84.9823 80.2069L85.1088 80.5905L85.2363 80.9738C85.9405 83.0809 86.7009 85.1689 87.7306 87.1454C87.753 87.1475 87.7752 87.1512 87.7974 87.1543C88.48 86.5552 89.3245 87.1312 90.0781 87.1971C90.2963 86.9894 90.6525 86.9365 90.8442 87.2193L90.8576 87.2401L81.4689 89.0896L75.2751 110.816L69.8812 106.438L66.986 106.868L59.3402 109.626L50.4476 111.936L30.1472 117.532H27.562L12.5189 113.9L11.1632 113.452C11.6109 108.082 13.3291 102.827 15.4434 97.8903C16.0426 96.1582 16.0839 94.2197 16.6514 92.4481C20.8485 73.59 29.4709 74.3904 44.635 67.6823C42.9389 66.1078 47.0773 61.5853 47.4541 62.0625L47.4778 62.0605L47.5292 62.0577L47.5954 62.0554C48.1869 62.0382 50.2266 62.0513 50.4465 62.076C50.5741 61.8282 50.7136 61.595 50.8642 61.3757Z" fill="#4089CB"/>
<path fill-rule="evenodd" clip-rule="evenodd" d="M119.894 84.9078L119.614 86.4663C119.548 86.488 119.48 86.5064 119.412 86.5216C119.324 87.4506 119.221 88.3807 119.104 89.3116L117.37 98.9749C117.071 100.685 116.787 102.398 116.506 104.112L116.132 105.952L115.901 107.097C115.402 109.574 114.917 112.044 114.491 114.5C114.555 114.592 114.605 114.693 114.641 114.798L114.609 114.937L114.586 115.029L114.562 115.12C114.227 116.411 113.642 117.663 112.265 118.043C111.227 118.329 110.087 118.355 109.014 118.468L108.895 118.481L90.1275 120.592C87.8597 120.847 85.593 121.109 83.3265 121.375L81.3617 121.605C78.6232 121.922 75.8688 122.172 73.1706 122.746C73.0714 122.767 72.9893 122.807 72.9223 122.859C73.4657 120.802 73.9858 118.748 74.4572 116.67C74.9878 114.332 75.4913 111.989 76.0588 109.659C77.2021 104.966 78.4837 100.303 79.8867 95.6799C80.1811 94.7096 80.4823 93.7413 80.7901 92.7752L81.0061 92.0999L81.1724 91.5618C81.4296 90.7413 81.748 89.898 82.5024 89.4454C83.3852 88.9157 84.5891 88.8279 85.5903 88.6447L86.2684 88.5173C87.2828 88.3281 88.2986 88.146 89.3156 87.9711C94.1846 87.1336 99.0813 86.4618 103.996 85.9572C109.11 85.432 114.242 85.0907 119.38 84.9239L119.894 84.9078ZM73.3112 117.128L73.3591 117.132L72.658 122.736C72.546 122.657 72.4037 122.609 72.23 122.61C69.9304 122.616 67.7261 121.882 65.594 121.074L65.2694 120.95L64.3642 120.602C63.444 120.249 62.519 119.905 61.5766 119.619L61.1957 119.504L61.0021 119.447C60.2887 119.238 59.5382 119.049 58.796 119.002L58.6949 118.996L58.911 118.883C58.9426 118.866 58.9703 118.848 58.9949 118.828C59.4034 118.858 59.8127 118.85 60.2435 118.772C61.0539 118.626 61.8418 118.344 62.5654 117.952L62.8885 117.777L63.0208 117.707L63.1082 117.661L63.1951 117.617C63.8165 117.307 64.4107 117.114 65.1953 117.278C66.086 117.466 66.8665 117.946 67.6694 118.352L67.8119 118.423L67.9077 118.469L68.0054 118.515L68.1042 118.56C69.19 119.049 70.9179 119.576 71.3343 118.1C71.5015 117.507 71.3706 116.951 71.0803 116.464C71.6212 116.417 72.5873 117.055 73.3112 117.128ZM100.338 98.6636L100.351 98.7308C100.505 99.5574 100.12 100.348 99.5371 100.924C99.0591 101.397 98.2133 101.66 97.9737 102.34C97.8373 102.727 97.9824 103.094 98.2626 103.349L98.1981 103.381L98.135 103.414L98.0734 103.446L98.0133 103.479L97.9548 103.512C97.003 104.059 96.2278 104.948 97.0863 106.022C98.0602 107.241 100.095 107.28 101.529 107.185L101.625 107.178C103.016 107.074 104.663 106.607 105.416 105.323C105.762 104.735 105.724 104.022 105.242 103.518C104.951 103.214 104.433 102.902 103.957 102.865C103.978 102.597 103.946 102.338 103.852 102.12C103.648 101.648 103.105 101.33 102.582 101.318C102.624 100.316 101.821 99.3263 101.23 98.5248L101.17 98.4425L101.111 98.3617C100.84 97.9842 100.259 98.1957 100.338 98.6636ZM101.131 99.7306L101.67 101.749L101.661 101.765C101.471 102.125 101.969 102.535 102.264 102.232L102.293 102.2C102.644 101.838 103.181 102.324 103.188 102.709C103.197 103.251 102.845 103.67 102.424 103.947L102.395 103.966L102.317 104.014C101.972 104.242 102.234 104.718 102.613 104.66C103.082 104.589 103.466 104.216 103.703 103.752C103.957 103.824 104.245 103.816 104.512 103.965C105.184 104.341 104.797 104.998 104.359 105.396L104.342 105.412L104.306 105.443C103.503 106.128 102.41 106.366 101.379 106.416L101.32 106.419C100.279 106.464 98.9225 106.479 98.0303 105.866C97.475 105.485 97.3142 104.945 97.7841 104.433C98.0499 104.144 98.3182 103.852 98.5944 103.57C99.0077 103.768 99.377 103.688 99.7997 103.501C99.8539 103.477 99.8239 103.394 99.7708 103.394C99.5375 103.394 98.6817 102.961 98.6401 102.684C98.6016 102.428 99.0751 102.212 99.3053 102.088L99.3387 102.07L99.3676 102.053C99.6084 101.907 99.8351 101.738 100.042 101.547C100.568 101.063 100.95 100.456 101.117 99.7912L101.131 99.7306Z" fill="white"/>
<path fill-rule="evenodd" clip-rule="evenodd" d="M50.7354 61.0705C51.2075 59.8839 52.8036 60.3452 52.6257 61.5917C52.5192 62.3384 52.1102 63.127 51.7429 63.7814C51.4438 64.3141 51.1026 64.834 50.64 65.2333C51.4635 66.0015 52.3182 66.7418 53.1946 67.4446C54.1509 68.2114 55.1566 68.9182 56.196 69.5679C57.1075 70.1376 58.0601 70.6424 58.9193 71.2925C59.7182 71.8968 60.4459 72.6237 60.8163 73.5725C61.2108 74.583 61.0393 75.6265 60.7488 76.6363L60.7155 76.7504C60.4187 77.7508 59.9049 78.9567 60.6173 79.8993C60.98 80.3791 61.5072 80.7189 61.9624 81.1025C62.367 81.4435 62.7468 81.8142 63.0951 82.2125C63.8546 83.0807 64.4723 84.0576 64.8621 85.1461L64.897 85.245C65.2311 86.2086 65.4753 87.3891 65.0238 88.3351C64.8943 88.6063 64.4765 88.5182 64.404 88.2541C64.24 87.6559 64.2485 87.0294 64.111 86.4227C63.9679 85.7918 63.7298 85.1929 63.4187 84.6262C62.817 83.5301 62.002 82.5937 61.0391 81.8021L60.7509 81.5677C59.9997 80.9513 59.3096 80.2973 59.1571 79.2771C58.994 78.1856 59.4313 77.1458 59.7125 76.1127C59.9085 75.3927 59.9725 74.7026 59.7607 74.0519C59.502 74.4742 59.149 74.8751 58.8698 75.2326C58.3137 75.9449 57.7525 76.6528 57.1926 77.3621C56.6186 78.0894 56.0588 78.8282 55.5257 79.5861C55.2872 79.9252 55.0513 80.2663 54.8162 80.6077C54.6393 80.8643 54.3928 81.1206 54.2 81.3824C54.2469 81.5224 54.2433 81.6837 54.1584 81.7983C53.1363 83.1793 51.6822 80.2979 51.303 79.5699C50.5307 78.0873 49.956 76.5123 49.1812 75.0301C48.3783 73.4935 47.464 71.998 46.4451 70.5952C45.8287 69.7467 45.1379 68.9497 44.574 68.0743C43.2457 69.2788 41.4978 70.0862 39.8922 70.8184C38.1282 71.6228 36.2956 72.2799 34.4869 72.9777L33.9527 73.1852C30.8364 74.4014 27.6439 75.7376 25.0537 77.8978C22.0099 80.4364 20.2092 83.9746 18.8686 87.6385C17.3254 91.8565 16.0487 96.1883 14.8586 100.517C14.2496 102.732 13.6717 104.957 13.1284 107.19C12.6497 109.156 12.2529 111.142 11.6987 113.088C12.8227 113.049 14.1045 113.484 15.064 113.609C19.4371 114.182 23.7514 115.094 27.8801 116.674C28.3901 116.869 28.5377 117.379 28.4266 117.791C28.7207 117.708 29.0146 117.624 29.3087 117.542C28.9865 117.048 29.1403 116.165 29.1656 115.618L29.1672 115.58C29.1932 114.851 29.2723 114.121 29.3236 113.393C29.4213 112.006 29.5485 110.628 29.7176 109.249L29.7607 108.904C29.9523 107.403 30.094 105.893 30.3031 104.395L30.3278 104.224C30.2275 103.84 30.1108 103.461 29.9883 103.084C29.6618 102.08 29.201 101.135 28.7972 100.162C28.7495 100.048 28.9127 99.9819 28.9889 100.051C29.6728 100.666 30.2161 101.446 30.6525 102.263C30.6601 102.224 30.6667 102.186 30.6746 102.147L30.7244 101.902C30.8473 101.304 30.9966 100.675 31.3633 100.19C31.4024 100.139 31.4796 100.128 31.5166 100.19C31.8675 100.784 31.9068 101.536 31.9608 102.212C32.0219 102.977 32.0296 103.751 32.0188 104.517C31.9977 106.016 31.8921 107.518 31.808 109.014C31.7255 110.483 31.5634 111.934 31.3545 113.39L31.3148 113.663C31.2127 114.355 31.1291 115.057 30.9944 115.745L30.9564 115.932C30.8844 116.273 30.8401 116.754 30.6968 117.154C34.3843 116.125 38.0775 115.12 41.7777 114.133C44.4521 113.419 47.1292 112.716 49.8052 112.009C49.9464 111.754 50.1222 111.516 50.3417 111.304C51.0647 110.604 52.0228 110.291 52.9015 110.83C52.973 110.874 52.979 110.986 52.9015 111.029C52.7332 111.121 52.5645 111.215 52.3988 111.313L54.0056 110.878C55.2066 110.553 56.422 110.146 57.6513 109.919C59.9155 108.802 62.3507 107.993 64.7358 107.194L65.0169 107.099C66.2381 106.682 67.5013 106.216 68.7631 105.985C69.6868 105.816 70.7711 106.02 71.1425 106.967C71.6128 107.277 72.0552 107.641 72.4822 107.999C72.7909 108.258 73.0868 108.533 73.3877 108.801L73.4431 108.85C73.6891 109.063 73.884 109.206 73.9444 109.546C73.9756 109.721 73.8641 109.958 73.6476 109.935C72.9854 109.864 72.4469 109.097 71.9978 108.638C71.6508 108.284 71.3011 107.918 70.9844 107.528C70.7998 107.629 70.5467 107.611 70.4292 107.388C69.8199 106.234 68.1506 107.034 67.227 107.308L65.9039 107.699C65.2424 107.895 64.5812 108.092 63.921 108.293C62.1068 108.844 60.3014 109.46 58.4706 109.966C58.6344 110.146 58.6119 110.467 58.3007 110.588C56.8677 111.151 55.2956 111.442 53.8068 111.827C52.8668 112.071 51.9274 112.316 50.9883 112.563C50.8273 112.824 50.7115 113.119 50.6627 113.463C50.4835 114.726 50.8291 116.183 51.1658 117.405L51.2165 117.587C51.4933 118.569 51.9005 119.773 52.7478 120.393C52.9547 120.544 53.2181 120.65 53.4836 120.673C55.1424 119.82 56.8011 118.966 58.4609 118.114C58.7683 117.956 59.0524 118.17 59.1214 118.424C59.7066 118.328 60.2905 118.176 60.8223 117.996C61.7158 117.692 62.4136 117.114 63.2513 116.713C64.8721 115.939 66.5274 116.89 67.9786 117.613L68.3131 117.778C68.9639 118.093 70.3178 118.7 70.6301 117.836C70.9321 117.001 69.9772 116.108 69.3605 115.732C68.6254 115.284 67.7695 115.044 66.9387 114.844C66.4643 114.73 65.9841 114.637 65.5011 114.569C64.9531 114.492 64.3872 114.503 63.8596 114.325C63.5974 114.237 63.5572 113.821 63.8596 113.752C64.6717 113.567 65.641 113.769 66.4885 113.975L66.9314 114.084C67.7853 114.294 68.6473 114.557 69.4251 114.975C69.9906 115.279 70.5875 115.74 70.9774 116.306C71.316 115.991 71.7374 116.002 72.1764 116.118L72.4147 116.185C72.8082 116.294 73.1271 116.369 73.51 116.293C73.5612 116.015 73.613 115.736 73.6685 115.457C74.2141 112.718 74.8125 109.99 75.4727 107.276C76.6115 102.595 77.9292 97.9648 79.4148 93.3824L79.5639 92.9243C79.9066 91.8762 80.1823 90.7343 80.7347 89.7714C81.2571 88.8609 82.0942 88.3365 83.0887 88.0587C84.2172 87.7436 85.4031 87.5787 86.5544 87.3658C86.8112 87.3184 87.0687 87.2733 87.3258 87.2267C87.1086 86.8345 86.9464 86.3892 86.8004 86.0476L86.7747 85.9884C86.461 85.273 86.1791 84.5448 85.9069 83.8126L85.7033 83.2622C85.2119 81.9368 84.7046 80.6331 84.0136 79.3935C83.2863 78.0889 82.3214 77.0223 81.1186 76.1395C78.6663 74.3395 75.7104 73.4213 73.3318 71.4977C73.2343 71.4189 73.3593 71.2841 73.4582 71.334C75.0643 72.141 76.7981 72.6897 78.4686 73.3467L78.7982 73.4767C80.1185 74.0001 81.4594 74.5699 82.6023 75.4173C83.8764 76.3623 84.8799 77.5358 85.6341 78.9314C86.3775 80.307 86.853 81.8467 87.3774 83.316L87.5177 83.7076C87.7292 84.2946 87.9477 84.8799 88.1981 85.4512C88.3968 85.9048 88.7677 86.4226 88.9363 86.9407C89.3976 86.8607 89.8587 86.7805 90.3204 86.7033C100.321 85.0337 110.433 84.0527 120.567 83.7657C120.963 83.7545 121.169 84.1328 121.11 84.4787C120.138 90.2296 119.273 96.0003 118.325 101.756C117.911 104.267 117.489 106.777 117.057 109.286C116.838 110.557 116.585 111.823 116.377 113.096C116.21 114.124 116.089 115.16 115.801 116.164C115.544 117.065 115.148 117.933 114.499 118.62C113.798 119.36 112.821 119.719 111.837 119.888C109.34 120.318 106.779 120.493 104.261 120.78L90.8583 122.305C91.0542 124.085 91.0688 125.837 90.9789 127.638L90.9277 128.622C90.8859 129.412 90.8358 130.204 90.7222 130.987C90.5798 131.969 90.1307 132.8 89.4691 133.534C88.8617 134.207 88.1237 134.782 87.4058 135.332C86.6607 135.904 85.8908 136.456 85.0147 136.809L84.901 136.854C84.1324 137.155 82.6906 137.619 81.64 137.449C81.7774 138.137 82.0431 138.877 81.8075 139.558C81.6982 139.874 81.2848 140.032 81.0316 139.763C80.5298 139.23 80.4907 138.526 80.3718 137.83C80.2482 137.106 80.1416 136.38 80.0469 135.652C79.8637 134.244 79.7212 132.823 79.6777 131.404C79.6329 129.946 79.6502 128.486 79.7287 127.029C79.7691 126.282 79.8192 125.534 79.9141 124.791C79.9546 124.474 79.996 124.157 80.0433 123.841C80.0606 123.726 80.0797 123.611 80.1003 123.496L78.8973 123.632C77.0527 123.838 75.2072 124.024 73.3495 124.053C73.1295 124.056 72.9603 123.956 72.8496 123.81C72.7318 124.002 72.5266 124.139 72.2327 124.138C69.6385 124.129 67.2227 123.28 64.8631 122.281C63.6738 121.776 62.5029 121.231 61.3118 120.731C60.2 120.265 59.0115 119.932 57.9265 119.406L55.0756 120.902C55.0546 120.975 55.0278 121.045 54.9993 121.103C54.8137 121.482 54.4477 121.687 54.0739 121.842C53.7152 121.991 53.3436 122.037 52.9816 122C50.8195 123.133 48.6568 124.265 46.4927 125.394L44.3281 126.522C40.0154 128.768 35.7198 131.05 31.3799 133.243L31.0604 133.404C29.5614 134.155 27.9518 134.917 26.2883 135.486C26.2587 135.907 26.2774 136.316 26.3127 136.762L26.3211 136.859C26.3707 137.386 26.4771 138.046 26.0546 138.421C25.8348 138.616 25.4422 138.616 25.2928 138.322C25.0216 137.789 25.2651 136.949 25.351 136.37C25.3815 136.164 25.4186 135.952 25.4736 135.746C23.5665 136.314 21.6017 136.589 19.661 136.271C17.7715 135.961 16.3081 134.77 15.1283 133.314C13.8832 131.778 12.9985 129.987 12.5238 128.068C11.9835 125.884 11.9482 123.628 11.9609 121.391C11.9744 119.008 12.0625 116.614 12.3523 114.248C12.0348 114.173 11.6827 114.109 11.3619 114.131C11.203 114.385 10.8948 114.492 10.6162 114.459C10.0105 115.127 11.5469 115.81 12.0378 115.981C12.2083 116.04 12.19 116.317 11.9934 116.309L11.8696 116.303C11.1109 116.263 10.3272 116.133 9.88113 115.428C9.52371 114.863 9.63109 114.194 10.0572 113.733C10.3386 111.072 11.0114 108.481 11.6375 105.885C12.252 103.337 12.9354 100.806 13.6597 98.2875L13.9844 97.1602C15.1248 93.2111 16.3168 89.2302 17.8899 85.438C18.6754 83.5445 19.5803 81.6858 20.807 80.0348C21.9503 78.4957 23.3003 77.1787 24.8519 76.0539C27.7446 73.9568 31.1388 72.6897 34.4738 71.4825L34.6231 71.4284C36.3514 70.8033 38.0754 70.1707 39.784 69.4933C41.295 68.8943 42.7426 68.1348 44.2465 67.5268C44.1977 67.4381 44.1505 67.3484 44.1051 67.2577L44.0773 67.2811C44.0726 67.2849 44.0677 67.2886 44.0626 67.292C43.9114 67.3968 43.6887 67.3453 43.5641 67.2277C43.2122 66.8956 43.3313 66.527 43.5662 66.1827L43.5968 66.1388C43.8841 65.7364 44.1404 65.3108 44.4056 64.8938L44.5716 64.6329C45.0167 63.9362 45.4845 63.2347 46.078 62.6589C46.3528 62.392 46.6537 62.1924 46.9725 62.0436C46.9453 61.986 47.1843 61.8681 47.252 61.9274C48.2621 61.5578 49.4242 61.6352 50.5254 61.7371M90.2098 122.378L88.8054 122.538C87.2604 122.714 85.7149 122.884 84.1691 123.052L80.8116 123.417C80.803 123.608 80.7797 123.795 80.7755 123.94C80.7536 124.685 80.7372 125.431 80.7218 126.176C80.6907 127.67 80.7248 129.166 80.8231 130.657C80.9185 132.102 81.0441 133.548 81.2392 134.983L81.2791 135.27L81.3023 135.421C81.4615 135.436 81.618 135.512 81.7481 135.667C82.0321 136.006 83.0604 135.677 83.462 135.534C84.1224 135.299 84.7443 134.902 85.3182 134.504C85.8786 134.115 86.3833 133.662 86.8682 133.184L87.2649 132.792C87.6596 132.399 88.0547 131.982 88.2966 131.488C88.6245 130.819 88.6669 129.998 88.763 129.269C88.8814 128.373 89.0224 127.477 89.1714 126.585M49.4425 112.97L49.2969 113.009C44.0055 114.415 38.722 115.862 33.4144 117.206C30.7878 117.871 28.1487 118.488 25.5189 119.14L25.0931 119.247C23.0184 119.771 20.9189 120.402 19.3302 121.907C19.2715 121.963 19.1864 121.877 19.2416 121.819C20.9538 119.996 23.389 119.224 25.7272 118.555C26.1594 118.432 26.5922 118.311 27.0245 118.188C23.8446 117.054 20.6145 116.068 17.3099 115.365C16.459 115.184 15.5981 115.051 14.7478 114.869C14.1549 114.742 13.5757 114.559 12.989 114.406L12.5275 114.29L12.5214 115.749C12.5137 117.815 12.5174 119.879 12.6228 121.945L12.6427 122.327C12.7657 124.626 12.9576 126.972 13.7734 129.14C14.4363 130.901 15.4929 132.56 16.8746 133.843C17.5737 134.492 18.3254 134.998 19.2546 135.247C20.1173 135.479 21.0213 135.506 21.9081 135.444C26.1622 135.147 29.949 132.836 33.6443 130.923C39.6886 127.794 45.7335 124.666 51.7839 121.548C51.6203 121.436 51.4663 121.308 51.3262 121.163C50.5149 120.325 50.0869 119.178 49.8058 118.067C49.5066 116.884 49.3277 115.617 49.3069 114.396M57.1411 122.757C57.1945 122.728 57.2564 122.764 57.2588 122.824C57.2775 123.286 57.0221 123.742 56.8313 124.158L56.8111 124.203C56.5793 124.718 56.3255 125.227 56.063 125.728C55.5383 126.728 54.9931 127.718 54.424 128.694C53.2796 130.657 52.0079 132.537 50.5048 134.247C50.1653 134.633 49.6069 134.138 49.8248 133.722C50.8752 131.718 52.0999 129.826 53.3604 127.95C53.9915 127.011 54.6221 126.071 55.2594 125.136C55.5252 124.745 55.7945 124.357 56.071 123.974L56.2378 123.745M119.897 84.9132C114.587 85.0736 109.283 85.4199 103.999 85.9626C99.0841 86.4672 94.1874 87.139 89.3183 87.9765C88.3013 88.1514 87.2856 88.3334 86.2711 88.5227L85.6626 88.6371C84.648 88.8294 83.4084 88.9088 82.5051 89.4508C81.5527 90.0222 81.2953 91.2164 80.9784 92.2012C80.6058 93.3594 80.2427 94.5209 79.8894 95.6852C78.4864 100.308 77.2048 104.971 76.0615 109.665C75.494 111.994 74.9905 114.337 74.4599 116.676C73.9885 118.753 73.4684 120.807 72.9251 122.864C72.9921 122.812 73.0742 122.772 73.1733 122.751C75.8716 122.177 78.6259 121.928 81.3645 121.61L81.6294 121.58C84.4625 121.246 87.2955 120.916 90.1302 120.597L108.898 118.486C110.005 118.362 111.191 118.345 112.268 118.048C114.099 117.543 114.529 115.495 114.836 113.865L114.845 113.815C115.772 108.889 116.509 103.919 117.373 98.9803M73.3618 117.137C72.6332 117.089 71.6359 116.422 71.0831 116.47C71.3733 116.956 71.5043 117.512 71.337 118.105C70.8716 119.755 68.7665 118.902 67.7526 118.397C66.9212 117.984 66.1184 117.478 65.1981 117.284C64.1554 117.065 63.449 117.479 62.5681 117.957C61.8446 118.35 61.0566 118.632 60.2463 118.777C59.8154 118.855 59.4061 118.863 58.9976 118.833C58.9731 118.853 58.9453 118.872 58.9137 118.888L58.6976 119.002C59.6748 119.046 60.67 119.348 61.5794 119.624C62.5217 119.91 63.4468 120.255 64.3669 120.607L65.2721 120.955C67.505 121.81 69.8163 122.622 72.2327 122.615C72.4064 122.615 72.5487 122.663 72.6608 122.741M69.2851 111.965C70.005 111.877 70.6694 111.972 71.2446 112.44C71.9383 113.005 72.4043 113.943 73.4016 114.004C73.6924 114.022 73.7599 114.431 73.4709 114.516C72.7286 114.736 72.1276 114.334 71.6218 113.813L71.2818 113.458C70.782 112.94 70.321 112.54 69.4729 112.571C68.5647 112.604 67.6549 112.814 66.7525 112.921C65.7303 113.042 64.7083 113.145 63.6829 113.234C63.6353 113.238 63.6272 113.163 63.6718 113.152L64.8203 112.866M68.5902 109.023L68.709 109.011C69.7543 108.91 70.7103 108.906 71.6438 109.468L71.8229 109.576C72.6646 110.088 73.5807 110.691 74.1071 111.519C74.1932 111.655 74.0509 111.814 73.9068 111.78C72.8951 111.537 72.1556 110.795 71.3049 110.239C70.3501 109.616 69.3638 109.719 68.2752 109.815C67.2212 109.909 66.1677 110.038 65.124 110.214C64.1433 110.379 63.1595 110.639 62.1689 110.722L62.1692 110.72C62.056 110.72 61.9915 110.55 62.1068 110.492C63.1121 109.99 64.2764 109.753 65.37 109.523M100.345 98.6911C100.244 98.2078 100.838 97.9837 101.114 98.3671L101.173 98.4479C101.768 99.2634 102.629 100.287 102.585 101.324C103.108 101.335 103.651 101.653 103.854 102.125C103.949 102.344 103.981 102.603 103.96 102.871C104.435 102.908 104.954 103.22 105.245 103.524C105.727 104.028 105.765 104.74 105.419 105.329C104.665 106.612 103.018 107.079 101.628 107.184L101.579 107.187C100.143 107.287 98.0736 107.26 97.0891 106.028C96.1393 104.839 97.189 103.877 98.2654 103.355C97.9852 103.099 97.8401 102.732 97.9765 102.345C98.2161 101.665 99.0619 101.402 99.5398 100.93C100.122 100.353 100.507 99.5627 100.354 98.7362M101.134 99.736C100.976 100.424 100.587 101.054 100.045 101.552C99.8378 101.743 99.6112 101.913 99.3704 102.059L99.3414 102.076C99.1277 102.195 98.6024 102.42 98.6428 102.689C98.6844 102.966 99.5403 103.399 99.7735 103.399C99.8266 103.399 99.8566 103.482 99.8025 103.506C99.3797 103.693 99.0105 103.773 98.5971 103.576C98.3209 103.858 98.0526 104.149 97.7869 104.439C97.3169 104.95 97.4777 105.491 98.033 105.872C98.9252 106.484 100.282 106.469 101.323 106.425C102.37 106.38 103.49 106.146 104.309 105.448L104.344 105.417C104.789 105.022 105.196 104.351 104.514 103.97C104.248 103.821 103.959 103.83 103.706 103.757C103.469 104.222 103.085 104.594 102.615 104.666C102.236 104.724 101.975 104.247 102.32 104.019L102.398 103.971C102.831 103.695 103.2 103.269 103.19 102.714C103.184 102.33 102.646 101.843 102.296 102.205L102.28 102.222C101.987 102.553 101.471 102.136 101.664 101.771L101.673 101.754M32.7963 80.5987C32.795 80.516 32.9113 80.4851 32.9519 80.5567C33.632 81.7532 33.9876 83.22 34.3499 84.5383C34.7294 85.9192 35.0357 87.3142 35.3109 88.7194C35.8683 91.5649 36.1653 94.3941 36.1854 97.2942C36.1882 97.7083 35.5136 97.8184 35.4477 97.3941C35.0095 94.5731 34.5898 91.7492 34.1484 88.929C33.9263 87.5105 33.6678 86.0975 33.4204 84.6833M39.5295 82.6827C39.4794 82.5177 39.7196 82.4625 39.781 82.6134C41.1459 85.9638 41.6082 89.7609 40.7319 93.2956C40.5978 93.8363 39.8058 93.6021 39.907 93.0682M57.1356 79.7055C57.1287 79.582 57.2891 79.5625 57.3495 79.6475C57.9962 80.5588 58.2645 81.7792 59.3992 82.2501C59.9658 82.4852 60.6033 82.4443 61.1038 82.8414C61.4384 83.107 61.695 83.5263 61.4439 83.9286C61.3628 84.0586 61.1361 84.1237 61.0261 83.9825C60.8657 83.7767 60.7807 83.5303 60.5628 83.3761C60.2553 83.1586 59.8407 83.1451 59.4881 83.0428C59.0321 82.9106 58.6302 82.6793 58.301 82.3355M67.9405 64.5073C68.0072 64.4733 68.0712 64.495 68.1138 64.5527C68.1746 64.6348 68.1672 64.7147 68.0926 64.771C68.1922 64.9745 68.3099 65.4844 68.3267 65.5586C68.3948 65.8595 68.4672 66.1586 68.543 66.4575C68.6959 67.0603 68.8299 67.6678 68.9829 68.2708C69.1451 68.91 69.3384 69.5424 69.5535 70.1656C69.5674 70.206 69.5826 70.2472 69.5986 70.289L69.6232 70.3521L69.6292 70.3426C69.6729 70.2735 69.7639 70.3218 69.7531 70.3948C69.7431 70.4613 69.7296 70.5275 69.7183 70.5941L69.7408 70.6537C69.8815 71.0324 69.9779 71.4312 69.7197 71.7654C69.6232 71.8903 69.5169 71.9643 69.3845 71.9864C69.1721 72.6863 68.9057 73.3732 68.6205 74.0329L68.5369 74.2255C68.1174 75.1881 67.67 76.138 67.002 76.9575C66.2727 77.8522 65.2695 78.4631 64.6342 79.4434C64.3387 79.8995 64.133 80.3789 63.9661 80.8939L63.9033 81.0894C63.7849 81.4537 63.6482 81.8067 63.3065 82.0204C63.1974 82.0885 63.0341 82.0668 62.9461 81.9739C62.2454 81.2327 62.979 79.8486 63.4015 79.131C63.9888 78.133 64.8389 77.4946 65.69 76.7417C66.6075 75.9302 67.1927 74.8445 67.7588 73.775C68.1055 73.1198 68.4403 72.4505 68.7927 71.7924C68.4245 71.467 68.3066 70.8206 68.1819 70.3713L68.1705 70.331C67.9643 69.6115 67.8005 68.8733 67.697 68.1318C67.5974 67.4189 67.5559 66.7162 67.5823 65.9993L67.5899 65.8167M69.3095 67.9002C69.2282 67.7887 69.3628 67.6624 69.4744 67.6857C70.153 67.826 70.8165 68.2368 71.4255 68.5689L71.4906 68.6042C71.9767 68.8663 72.4659 69.1875 72.7212 69.6968C72.9988 70.2504 72.9759 70.8879 72.9381 71.4895L72.9345 71.5458C72.8881 72.2672 72.8806 73.0168 72.728 73.7252C72.6498 74.0877 72.3215 74.1899 72.0407 74.1042C71.7067 75.159 70.7683 75.9362 70.0828 76.7685C69.2088 77.8297 69.3733 79.2624 69.4646 80.5404C69.5016 81.0578 68.8579 81.205 68.5264 80.9289L67.7625 80.2943C67.6353 80.1884 67.5082 80.0823 67.3815 79.9758C67.273 79.8845 67.1654 79.7924 67.0588 79.6993L66.8995 79.5586C66.8288 79.4954 66.5171 79.1472 66.426 79.1327C66.2052 79.0976 65.6808 79.6794 65.5013 79.8619L65.4785 79.8846C65.1407 80.2159 64.8355 80.5723 64.5512 80.9503C64.4989 81.0198 64.3966 80.9621 64.434 80.8819C64.6887 80.3362 64.985 79.8144 65.3367 79.3261L65.4078 79.2289C65.6418 78.9135 65.9559 78.3567 66.369 78.2635C66.8734 78.1499 67.377 78.6557 67.744 78.9364L67.7672 78.954C67.9418 79.085 68.1144 79.2183 68.2866 79.3525C68.2686 78.401 68.3888 77.4395 68.8801 76.6195C69.2265 76.0412 69.7455 75.6129 70.1896 75.1159C70.684 74.5626 70.9422 73.8824 71.3897 73.3061C71.4474 73.232 71.5268 73.1921 71.6129 73.1794C71.63 72.716 71.6983 72.2481 71.751 71.7898L71.7663 71.6526C71.8196 71.1547 71.9456 70.5464 71.7018 70.0801C71.4715 69.6396 70.943 69.3286 70.5517 69.0298L70.2322 68.7819M47.286 62.6349C47.0817 62.7531 46.8907 62.9001 46.7175 63.0838C46.1721 63.6624 45.7822 64.3823 45.4027 65.0749C45.1984 65.4479 45.0014 65.8251 44.7955 66.1972C44.7059 66.3591 44.6138 66.5192 44.5206 66.6791C44.4775 66.7528 44.3496 66.8992 44.2861 66.9895C44.3566 67.0882 44.4295 67.1855 44.5038 67.2816C44.5322 67.3183 46.4885 69.4495 47.1705 70.2835C48.2147 71.5611 49.1481 72.9106 49.9461 74.355C50.7275 75.7694 51.3224 77.267 52.0462 78.7088C52.4085 79.4307 52.8132 80.1474 53.3289 80.7721C53.3488 80.7965 53.3699 80.8195 53.3902 80.8436C53.5871 80.3118 54.0915 79.7424 54.3392 79.4155L54.3624 79.3846C54.9242 78.6272 55.5175 77.8927 56.1238 77.1706C56.6775 76.5113 57.2453 75.8661 57.8268 75.2317L58.0456 74.9942C58.4507 74.5566 58.9654 73.9017 59.5585 73.589C59.4949 73.4757 59.4214 73.3637 59.3368 73.2531C58.7811 72.5269 57.9955 71.9999 57.2204 71.5244L56.7177 71.2186C54.8229 70.0639 52.9576 68.8557 51.3126 67.3553C50.4423 66.5615 49.584 65.7299 48.8524 64.804L48.5937 64.4766M50.4476 62.0629C49.5602 62.1374 48.602 62.1197 47.782 62.4088C48.511 63.0979 49.2039 63.842 49.9158 64.5428C49.9791 64.0688 50.1086 63.6007 50.2183 63.1385" fill="black"/>
<path fill-rule="evenodd" clip-rule="evenodd" d="M79.4336 29.792C81.4507 28.4983 84.203 25.1972 82.6388 22.694C82.0035 21.7151 81.1372 21.3471 80.1862 21.3176C79.9596 21.0332 79.5829 20.9498 79.2314 20.9478L79.2334 20.9328C77.9483 20.9564 76.6854 21.4065 75.6519 22.1581C74.9856 21.5727 74.158 21.2397 73.3563 20.8797C73.6925 19.1889 74.2055 17.5395 74.788 15.9186C75.1024 14.9853 74.1066 14.0022 73.1676 14.2842C73.3986 13.2724 72.8678 12.0973 71.7117 12.1104C71.0935 12.1104 70.394 12.4417 69.7962 12.5911C69.3535 12.7017 68.9174 12.8152 68.49 12.9595C68.488 12.9479 68.4869 12.9363 68.4857 12.9245C69.6056 12.1404 69.5665 10.3353 67.9209 10.5103C67.2188 10.5723 66.5051 11.0501 65.8559 11.3419C64.7857 11.4063 63.758 11.7464 62.7177 11.9904C59.8713 12.6965 56.8261 13.406 54.4812 15.1975C50.4196 16.7628 45.368 19.1825 44.8649 23.9656C37.7113 21.1979 32.3074 30.0358 38.7946 33.5136C40.0677 34.107 41.5392 34.4142 42.9318 34.1288C42.6028 35.3457 42.2883 36.5668 41.994 37.7928C39.5166 43.4847 37.5136 49.5001 38.2341 55.7474C38.2447 56.8808 39.7002 57.5346 40.5048 56.688C41.1703 55.885 41.9779 56.8236 41.7609 57.5989C41.5552 58.4601 42.1616 59.2507 43.0436 59.2826C44.099 59.3379 44.9374 58.6301 45.6843 57.9763C45.6699 57.9905 45.704 57.969 45.7536 57.9355C47.5966 62.2824 49.3234 58.9025 51.5949 60.8583C52.1257 61.3486 52.4982 61.9295 53.1782 62.2484C54.773 63.0564 56.0323 61.6161 57.5557 61.4499C58.9639 61.3462 60.3563 61.8337 61.7067 62.1617C63.2836 62.5446 64.8735 62.7452 66.4934 62.5656C68.5646 62.3357 72.697 61.3998 73.92 60.6292C75.4185 61.6349 76.9604 60.442 77.7841 59.0685C78.3602 59.6231 79.4501 59.7082 79.9131 58.8529C80.3735 57.8991 81.2342 56.4414 82.2239 56.6574C82.3122 56.6844 82.364 56.7013 82.4179 56.7405C83.343 57.5269 84.5372 56.9299 84.6725 55.787C85.5494 48.3817 83.7607 40.953 81.3824 33.9842C80.8632 32.5269 80.4324 31.012 79.4336 29.792Z" fill="white"/>
<path fill-rule="evenodd" clip-rule="evenodd" d="M78.6158 29.5869C78.5784 29.4843 78.7355 29.4253 78.7873 29.5145C80.4871 32.4365 81.8458 35.5402 83.0079 38.7108C84.0364 41.5172 84.9486 44.3778 85.5986 47.2971L85.6427 47.498C86.2541 50.3152 86.5555 53.2953 85.7537 56.1058L85.7149 56.2395C85.5303 56.8647 85.2864 57.4996 84.7161 57.8708C84.2372 58.1827 83.6953 58.2217 83.1438 58.135C82.6791 58.0619 82.2364 57.8594 81.7707 57.8033C81.4196 57.7611 81.328 57.9296 81.2256 58.2133L81.1406 58.4535C80.7757 59.4714 80.3301 60.4186 79.1397 60.6331C78.4986 60.7487 77.8021 60.6287 77.2467 60.2918C77.2402 60.3134 77.2338 60.3348 77.2285 60.3555L77.2022 60.4558C77.086 60.891 76.9365 61.3334 76.6287 61.6717C76.1987 62.1438 75.582 62.3111 74.9605 62.1858C74.6781 62.129 74.4128 62.0007 74.1447 61.8937C74.0792 62.2886 73.6257 62.6103 73.2109 62.513C72.9864 62.4605 72.8134 62.3583 72.6845 62.2268C72.0437 62.7212 71.1793 62.9741 70.4306 63.1658C69.3464 63.4432 68.1927 63.5571 67.0747 63.5237C65.9399 63.4898 64.7854 63.2714 63.718 62.8869L63.5511 62.8261C62.6303 62.4865 61.661 62.0565 60.915 61.4214C60.7668 61.3485 60.8535 61.0793 61.0302 61.1364C62.0435 61.464 62.9887 61.8489 64.0521 62.0065C65.0556 62.1551 66.0635 62.1797 67.0747 62.1185C68.1 62.0565 69.0948 61.8473 70.0733 61.538C70.9248 61.2688 71.7635 60.7827 72.6677 60.7192C72.7149 60.6539 72.7661 60.5908 72.8252 60.5333C73.6074 59.7736 74.3998 60.1536 75.28 60.4302C75.3089 60.4394 75.317 60.4548 75.3171 60.4698L75.3279 60.4545V60.4545L75.3348 60.4452L75.3296 60.4516C75.293 60.493 75.3663 60.3394 75.3793 60.3081L75.3807 60.3047C75.4818 60.0286 75.521 59.7319 75.6066 59.4512C75.8107 58.7806 76.1922 58.1672 76.9231 58.0067C77.2839 57.9273 77.7755 58.0482 77.9425 58.4215C78.0801 58.7285 78.3053 58.8841 78.6519 58.876C79.0139 58.8676 79.1471 58.6566 79.2732 58.3385C79.4783 57.8211 79.589 57.2827 79.9259 56.8263C80.3048 56.3128 80.8711 56.013 81.511 55.9884C82.0041 55.9696 82.487 56.1134 82.9559 56.2465L82.9991 56.2595C83.2132 56.3267 83.5958 56.478 83.763 56.3664C84.0137 56.1992 84.1433 55.2237 84.2158 54.8588L84.2205 54.8359C84.3497 54.2142 84.4247 53.5877 84.4552 52.9536C84.5824 50.3011 84.0355 47.6624 83.4308 45.0951C82.1833 39.8007 80.4759 34.6933 78.6158 29.5869ZM43.0726 36.0602C43.1064 36.0097 43.18 36.0534 43.1537 36.1076C43.0314 36.3592 42.9867 36.6235 42.9042 36.8855C42.8128 37.1756 42.6576 37.4569 42.5424 37.7385C42.3559 38.1944 42.1753 38.6529 41.9931 39.1106C41.6269 40.0309 41.2864 40.9651 40.9637 41.9016C40.3157 43.783 39.7862 45.7171 39.3988 47.6689C39.0181 49.5866 38.6994 51.5917 38.7115 53.5518C38.717 54.4433 38.8144 55.3612 39.1681 56.189C39.2236 56.3189 39.2887 56.4461 39.3577 56.5698L39.3996 56.6436C39.4055 56.654 39.4117 56.6644 39.418 56.6746L39.4562 56.7358C39.5679 56.572 39.8899 56.3552 40.0227 56.2403L40.0412 56.2238L40.6646 55.6472C40.936 55.3959 41.3276 55.3355 41.6557 55.5192C42.6532 56.0774 42.6209 57.1141 42.8344 58.0925L42.8439 58.135C42.9368 58.5462 43.0975 58.8879 43.59 58.8073C44.1038 58.723 44.4007 58.2007 44.5685 57.7515L44.5901 57.692C44.8867 56.8558 45.9531 56.8892 46.2601 57.692L46.3752 57.996C46.6133 58.6193 46.9377 59.3713 47.5521 59.6179C48.0688 59.8254 48.6608 59.5151 49.1307 59.3226C49.3891 59.2168 49.6907 59.4376 49.7596 59.6797C49.7782 59.7456 49.7908 59.8086 49.8006 59.8705C50.2919 59.8229 50.7622 59.9402 51.2453 60.1633C51.8778 60.4551 52.673 61.085 52.7919 61.8151C52.9326 62.6783 51.9329 63.0858 51.417 62.3948C51.0922 61.9596 50.9746 61.4311 50.5862 61.0175C50.3581 60.7747 50.0745 60.5638 49.7768 60.3845C49.5107 61.3249 48.0174 61.596 47.1273 61.3176C46.2727 61.0505 45.7061 60.4207 45.2831 59.684C44.4921 60.4573 43.3946 60.8315 42.2947 60.157C41.6579 59.7664 41.361 59.0832 41.2459 58.3736C41.2113 58.1603 41.2093 57.8097 41.1481 57.5016L41.0888 57.5621C40.5516 58.1053 39.927 58.6162 39.223 58.4988C38.3002 58.345 37.8621 57.3179 37.5743 56.5356C36.9758 54.9098 37.0861 53.1017 37.2889 51.4136C37.511 49.5654 37.8826 47.7347 38.3745 45.9396C38.8542 44.1887 39.4752 42.4895 40.2059 40.828C40.5783 39.9813 41.0079 39.1554 41.4696 38.3537C41.7015 37.9513 41.954 37.56 42.2077 37.1711C42.4695 36.7696 42.8099 36.4533 43.0726 36.0602ZM37.5441 24.6196C38.8993 23.362 40.7111 22.7887 42.5383 23.0473C43.4007 23.1692 44.2219 23.481 44.95 23.962C45.6886 24.45 46.1671 25.054 46.6091 25.8095C46.6399 25.8621 46.5699 25.9121 46.5272 25.8726C45.349 24.7869 43.5648 24.2075 41.9792 24.2687C39.1536 24.3777 36.8109 26.8776 36.9865 29.7269C37.073 31.1301 37.8617 32.5474 39.0813 33.2694C40.3738 34.0347 41.845 33.7806 43.2301 33.4437C43.7303 33.3221 43.9822 33.8841 43.697 34.2458C42.2923 36.028 39.4037 35.562 37.7819 34.3361C34.6481 31.9676 34.7553 27.2076 37.5441 24.6196ZM42.0944 27.4254L42.2146 27.4047C43.2256 27.2378 45.3779 27.0452 45.6945 28.2789C45.8559 28.9071 45.2318 29.2454 44.6857 29.2176C44.2353 29.1947 43.7989 29.0537 43.3544 28.958C43.2267 29.3992 43.1833 29.86 43.1211 30.3142C43.0668 30.712 42.4271 30.604 42.4346 30.2214C42.4453 29.6894 42.6925 29.2371 43.0815 28.9069C42.9907 28.8929 42.8995 28.8811 42.8073 28.8749C41.7021 28.8006 40.6101 29.0058 39.5777 29.3849L39.6869 29.4462V29.4462C39.7389 29.4642 39.7167 29.5337 39.6646 29.5266L39.1511 29.5524V29.5524C38.9362 29.6027 38.8093 29.3573 38.9447 29.1979C39.7404 28.2608 40.8882 27.6405 42.0944 27.4254ZM78.9566 20.8212C80.5003 20.6362 82.0337 21.2051 82.8622 22.5631C83.6311 23.8229 83.6977 25.4178 83.1525 26.7717C82.8426 27.5408 82.3745 28.2306 81.7952 28.8237C81.5088 29.117 81.1805 29.4195 80.8175 29.6135C80.3948 29.8394 80.0801 29.8197 79.6341 29.7368C79.3469 29.6834 79.1487 29.3147 79.2405 29.0437L79.3089 28.8383C79.3835 28.6177 79.4533 28.4542 79.6576 28.2461C79.8358 28.0646 80.0491 27.9176 80.2451 27.7558C80.6665 27.4076 81.0581 27.019 81.351 26.5547C81.8863 25.7055 82.072 24.7295 81.7697 23.761C81.4453 22.721 80.5865 22.0475 79.5103 21.9219C78.8993 21.8508 78.2792 21.9151 77.6765 22.0218L77.3091 22.0882C76.7965 22.1831 76.3784 22.2933 76.0248 22.7634C75.995 22.8029 75.9372 22.7994 75.92 22.7497C75.7427 22.2391 76.2841 21.7834 76.6674 21.5419C77.3334 21.123 78.1829 20.9139 78.9566 20.8212ZM72.2292 20.1995C72.1536 20.1033 72.2185 19.9081 72.366 19.9642C74.0855 20.617 75.5337 22.2066 76.5249 23.7085C76.8249 24.1628 77.0939 24.6346 77.3368 25.1197C77.6835 24.6984 78.2015 24.3936 78.6859 24.1864L78.7396 24.1638C79.2984 23.9317 80.507 23.5344 80.8493 24.2782C80.9594 24.5176 80.9153 24.7631 80.7223 24.9486C80.424 25.2353 79.9475 25.1267 79.5753 25.1234C78.8231 25.1169 78.2257 25.3546 77.56 25.5854C77.6812 25.8496 77.7958 26.117 77.9026 26.388C78.048 26.7567 78.1553 27.1452 78.3316 27.5007C78.4991 27.8386 78.7622 28.1405 78.9867 28.4402C79.29 28.8446 78.8846 29.5281 78.3904 29.4796C77.3675 29.379 76.9599 28.5337 76.6783 27.6378L76.5247 27.1478C76.2946 26.4159 76.0577 25.6985 75.7122 25.0023C75.2677 24.1072 74.7375 23.2327 74.1276 22.4403C73.5294 21.6634 72.8318 20.9698 72.2292 20.1995ZM69.5666 9.65014C70.202 9.41334 70.7363 10.2289 70.4199 10.76C70.1418 11.2265 69.9765 11.7082 69.9117 12.2136L72.713 11.5462V11.5462C73.27 11.4136 73.7969 11.9057 73.643 12.4763L73.2106 14.0792V14.0792C73.7693 13.8924 74.3536 13.7817 74.9541 13.7426C75.4688 13.7092 75.753 14.2405 75.6684 14.6802C75.4919 15.5965 75.2464 16.4959 74.9193 17.3696L74.6803 17.9984C74.3992 18.7306 74.0712 19.4695 73.3936 19.882C73.0662 20.0813 72.6417 19.8236 72.6401 19.4498C72.6362 18.5448 73.1948 17.7715 73.5053 16.9371C73.6938 16.4305 73.8537 15.9152 73.9895 15.3933C73.4636 15.542 72.9688 15.7778 72.5016 16.0888L72.4317 16.136C71.8792 16.5147 71.1852 15.8993 71.3227 15.3086L71.3279 15.2875L71.8558 13.3081L69.3448 13.914V13.914C68.8273 14.0389 68.4299 13.6773 68.3808 13.1797C68.3288 12.6506 68.3623 12.1242 68.4723 11.6143C66.8127 12.1369 65.119 12.5435 63.4202 12.9233L63.1654 12.9801C59.437 13.808 55.6274 14.539 52.2068 16.311C50.6962 17.0934 49.3111 18.0197 48.0514 19.1653C47.4289 19.7314 46.8595 20.3543 46.3609 21.0323C46.1271 21.3504 45.9084 21.6796 45.708 22.0197L45.5476 22.2966C45.4705 22.4302 45.3955 22.5679 45.3496 22.7118L45.327 22.7839C45.2899 22.9056 45.2497 23.0656 45.2835 23.1724C45.3322 23.3262 45.6106 23.579 45.8073 23.5098C45.8341 23.5003 45.8477 23.5353 45.8326 23.5534C45.6592 23.7622 45.4151 23.7998 45.1667 23.6949C44.7739 23.5287 44.676 23.1495 44.7194 22.7538C44.827 21.7744 45.5084 20.6945 46.0472 19.8951C48.266 16.6027 51.917 14.6326 55.5999 13.3983C60.179 11.8636 65.0328 11.3396 69.5666 9.65014Z" fill="black"/>
<path fill-rule="evenodd" clip-rule="evenodd" d="M71.58 46.9666C74.7143 46.9666 77.2552 44.3759 77.2552 41.1801C77.2552 37.9844 74.7143 35.3937 71.58 35.3937C68.4457 35.3937 65.9048 37.9844 65.9048 41.1801C65.9048 44.3759 68.4457 46.9666 71.58 46.9666Z" fill="white"/>
<path fill-rule="evenodd" clip-rule="evenodd" d="M75.1563 48.839C75.1833 48.7547 75.3004 48.7549 75.3274 48.839C75.572 49.6014 75.7156 50.348 76.0808 51.0648C76.1711 51.1577 76.2357 51.2747 76.2703 51.401C76.4409 51.6844 76.631 51.9535 76.8437 52.2082C77.1112 52.5287 77.3058 52.8297 77.164 53.2671C77.0941 53.4827 76.9136 53.6205 76.6862 53.6309C76.0617 53.6591 75.7059 53.0636 75.4851 52.4427C73.9396 52.9559 72.238 53.2464 70.6182 53.1188C69.3016 53.0148 67.8673 52.685 66.6884 52.0127C66.6954 52.2666 66.7051 52.5208 66.714 52.775C66.7305 53.2453 66.857 53.76 66.8081 54.2218C66.7595 54.68 66.4994 55.0345 66.0279 55.1055C65.6221 55.1665 65.1197 54.8956 65.0406 54.4609C64.9489 53.9564 65.1187 53.604 65.2584 53.1277C65.3818 52.7068 65.4786 52.2769 65.585 51.8514C65.6923 51.4219 65.7801 50.9887 65.8596 50.5535C65.9179 50.2349 65.8759 49.8759 65.9887 49.5758C65.9976 49.5523 66.0205 49.5355 66.0465 49.543C66.6468 49.7155 66.6809 50.6821 66.6784 51.2007L66.6783 51.2263C66.6774 51.332 66.6784 51.4377 66.6795 51.5433L66.9089 51.5935C68.1682 51.866 69.3914 52.073 70.7155 51.9979C72.2687 51.9099 73.6345 51.342 75.1085 50.9529C74.9861 50.2528 74.9485 49.4891 75.1563 48.839ZM69.9622 35.0443C70.6514 34.8083 71.3966 34.6968 72.1214 34.7325C73.6751 34.8093 75.1552 35.5179 76.1738 36.6987C77.1356 37.8133 77.6583 39.2113 77.6514 40.6862C77.6441 42.2012 77.2462 43.9074 76.4969 45.2336C74.9224 48.0201 71.2449 48.0394 68.602 46.9284C65.7817 45.7429 64.6342 42.753 65.3135 39.8623C65.8243 37.6884 67.5666 35.0799 69.9622 35.0443ZM74.557 37.1962C73.7249 36.5282 72.677 36.2281 71.6182 36.304C71.0922 36.3417 70.5577 36.4798 70.0802 36.7042C69.8264 36.8235 69.5995 36.9901 69.3496 37.1143C69.1267 37.2249 68.8855 37.2894 68.6556 37.3825L68.5699 37.4189C68.1924 37.5876 67.8121 37.3462 67.7932 36.9944C66.9719 38.1468 66.5823 39.7095 66.5886 41.0958C66.5933 42.1167 66.8365 43.1772 67.4225 44.0271C68.0738 44.9717 69.1544 45.47 70.2382 45.7347C71.2762 45.988 72.408 46.0759 73.4485 45.7881C74.5284 45.4894 75.226 44.6698 75.6231 43.6482C76.4844 41.4321 76.5555 38.8005 74.557 37.1962ZM70.8486 39.9442C71.3199 39.3009 72.1652 39.2668 72.6306 39.9442C72.9235 40.3706 72.8804 40.7815 72.8572 41.2722L72.8527 41.3826C72.8389 41.771 72.8407 42.1798 72.6952 42.5388C72.5084 42.9996 72.1453 43.2948 71.631 43.2337C71.3282 43.1975 71.0746 43.0168 70.9275 42.7676L70.9224 42.7705V42.7705C70.7161 42.3586 70.6628 41.9407 70.628 41.4912L70.604 41.1615C70.5748 40.728 70.5733 40.32 70.8486 39.9442Z" fill="black"/>
</g>
</svg>
