<svg width="132" height="132" viewBox="0 0 132 132" fill="none" xmlns="http://www.w3.org/2000/svg">
<circle cx="66.0483" cy="65.938" r="65.938" fill="#C8C756"/>
<mask id="mask0_647_335" style="mask-type:alpha" maskUnits="userSpaceOnUse" x="0" y="0" width="132" height="132">
<circle cx="66.0483" cy="65.938" r="65.938" fill="#C8C756"/>
</mask>
<g mask="url(#mask0_647_335)">
<path fill-rule="evenodd" clip-rule="evenodd" d="M59.2054 57.6766C65.1761 57.2491 73.3622 58.4326 75.0891 65.2405C75.6247 67.7178 76.6799 68.8052 78.4528 70.4254C89.7061 84.8288 50.4431 87.2497 48.4248 73.2046C44.1726 74.7532 39.5439 75.0812 35.2892 76.6464C32.9816 77.4989 30.8892 78.8439 28.8841 80.2503C20.7075 86.0577 12.6466 92.031 4.49916 97.8801C7.652 99.3319 13.6463 104.875 11.2038 108.6C10.6348 109.326 9.79018 109.826 9.04306 110.356L8.64908 110.637C7.80153 111.245 6.37476 112.28 5.58579 112.843L5.44028 112.949C5.38323 112.99 5.31887 113.036 5.26075 113.078C10.9504 121.396 17.6091 129.071 24.9953 135.924C25.6243 136.509 25.3667 137.816 24.4564 137.968L23.372 138.128C19.8704 138.638 16.3024 139.096 12.7738 138.82C9.33719 138.446 7.26631 135.404 4.91701 133.2C0.225642 128.405 -4.14146 123.29 -8.1192 117.886L-8.20203 117.772C-9.44002 116.081 -11.0832 114.352 -11.2035 112.167C-11.4228 111.51 -10.8456 110.569 -10.291 110.121L-10.1017 109.848C-7.12706 105.57 -3.7605 101.444 0.457323 98.3463C0.441633 97.8846 0.655064 97.3993 1.0777 97.0935L18.705 84.337V84.337C23.2532 81.207 27.4805 77.5286 32.4103 75.0012C37.4512 72.5741 43.1399 72.4787 48.3057 70.4531C48.4152 68.9932 51.4846 68.6205 51.3877 68.846C54.6262 66.8912 56.2934 64.5655 56.8076 62.4279C57.3217 60.2903 56.6827 58.341 59.2054 57.6766ZM102.796 103.475C108.247 95.2741 113.442 104.348 115.712 109.817C118.393 117.302 112.841 126.508 109.254 132.96C107.933 134.752 106.195 138.531 103.867 138.805C98.0001 138.781 92.1254 138.368 86.2553 138.245C82.4649 137.305 87.7829 131.609 91.4564 133.689C92.5694 134.106 93.1255 135.37 94.2108 135.775C94.6062 135.859 94.6334 135.683 94.7943 135.289L94.8171 135.234C95.1039 134.553 95.382 133.868 95.6644 133.184C98.0543 127.299 100.581 121.465 103.093 115.634C103.63 114.368 102.877 113.325 101.899 112.572C101.149 111.955 97.9287 110.45 100.963 111.112C99.7947 108.4 101.199 105.647 102.796 103.475ZM89.264 92.2482C89.7888 92.1826 90.4628 92.7115 90.5436 93.2238C91.213 97.4708 90.4671 101.67 89.573 105.824L89.4084 106.585C89.0786 108.1 88.7101 109.645 87.8876 110.973C87.0482 112.329 85.7784 113.35 84.3207 113.971C79.6442 115.835 73.8284 113.992 70.3882 110.508C68.1874 107.493 70.1222 103.706 70.4915 100.402C70.1424 99.5118 70.0137 98.4821 69.8118 97.5641L69.7872 97.4545L69.0028 94.0303C68.8299 93.275 69.3803 92.2415 70.2847 92.3452C76.5911 93.0685 82.9653 93.036 89.264 92.2482Z" fill="white"/>
<rect x="68.6465" y="92.4287" width="22.1443" height="22.2556" fill="#C8C756"/>
<path fill-rule="evenodd" clip-rule="evenodd" d="M111.288 102.402C111.269 102.317 111.37 102.253 111.436 102.316C112.546 103.385 113.329 104.752 114.189 106.018C115.008 107.225 115.9 108.384 116.51 109.715C117.078 110.952 117.444 112.208 117.553 113.567C117.662 114.917 117.521 116.27 117.283 117.6C116.814 120.22 115.813 122.7 114.713 125.109C113.644 127.451 112.437 129.727 111.161 131.961L110.704 132.758C110.146 133.729 109.583 134.699 108.979 135.639C108.228 136.81 107.543 138.019 106.552 138.996C105.849 139.691 104.524 138.996 104.844 138.002C104.983 137.569 105.092 137.162 105.308 136.76C105.472 136.454 105.656 136.157 105.83 135.855C106.177 135.252 106.521 134.647 106.868 134.044C107.597 132.776 108.365 131.532 109.087 130.26C110.34 128.055 111.523 125.808 112.569 123.496L112.692 123.223C113.655 121.082 114.567 118.864 114.989 116.547C115.434 114.107 115.036 111.807 114.169 109.513C113.721 108.327 113.217 107.168 112.692 106.013L112.592 105.792C112.086 104.69 111.549 103.593 111.288 102.402ZM57.4129 60.1919C57.423 60.1486 57.4964 60.1453 57.5031 60.1919C57.8147 62.2641 57.1214 64.4562 55.9919 66.1799C55.3754 67.1213 54.6154 67.9715 53.7196 68.6547L53.6499 68.7074C52.7348 69.3915 51.4983 70.0521 50.3624 69.6085C50.3268 69.5949 50.2934 69.5795 50.2622 69.5618C50.3902 69.7597 50.5081 69.9678 50.6283 70.1759C50.9855 70.7957 51.306 71.4378 51.6543 72.0632C52.2775 73.1815 53.0197 74.1819 53.9578 75.0577C57.7089 78.5588 62.976 79.391 67.9225 79.3511L68.2719 79.3478C70.4447 79.3325 73.2863 79.4435 74.9637 77.8709C75.865 77.0263 76.3613 75.8255 76.8098 74.6982C77.2505 73.5932 77.552 72.4526 77.9181 71.3287C77.1536 70.8047 76.4526 70.1649 75.9018 69.417C75.3276 68.638 74.8936 67.7612 74.6432 66.8253L74.6063 66.6855C74.4127 65.9392 74.218 64.952 74.5297 64.247C74.5653 64.1658 74.6989 64.1713 74.7367 64.247C74.9047 64.5842 74.937 64.9648 75.0405 65.3253C75.1607 65.7448 75.2964 66.1621 75.4756 66.5594C75.8216 67.3294 76.279 68.0616 76.8276 68.7026C77.2805 69.2333 77.7712 69.7208 78.3321 70.1303C78.6626 69.5594 79.4293 69.4826 80.0713 69.6707C80.932 69.9221 81.7809 70.2449 82.6108 70.586L82.7765 70.6544C83.5966 70.9949 84.5236 71.3076 85.2914 71.7716C85.7577 71.9942 86.205 72.2179 86.6256 72.4159C88.7215 73.4005 90.7864 74.4452 92.8419 75.5102L93.2823 75.7387C94.1436 76.1871 94.9971 76.64 95.746 77.2654C96.5082 77.9019 97.1002 78.7721 97.6566 79.5878C98.9285 81.4528 100.127 83.3712 101.384 85.2463C103.924 89.0297 106.463 92.8132 109.017 96.5877C109.635 97.5014 110.331 98.3927 110.885 99.3452C111.416 100.256 111.402 101.19 111.298 102.206L111.279 102.393C111.08 104.256 110.739 106.046 109.694 107.644C108.048 110.157 105.455 111.722 102.712 112.799C103.047 113.048 103.362 113.317 103.761 113.489C104.376 113.751 105.031 113.887 105.695 113.942C106.404 113.998 107.203 113.821 107.777 114.303C108.008 114.496 108.014 114.959 107.777 115.151C107.225 115.602 106.512 115.473 105.839 115.397L105.799 115.393C105.175 115.324 104.559 115.208 103.973 114.979C103.828 114.922 103.685 114.858 103.545 114.788C103.55 114.801 103.552 114.815 103.55 114.831C103.45 115.597 103.233 116.322 103.003 117.055L102.858 117.519C102.562 118.467 102.264 119.413 101.956 120.359C101.372 122.16 100.735 123.943 100.096 125.725L99.545 127.262C98.9786 128.839 98.405 130.413 97.7712 131.964C97.3795 132.921 96.9856 133.878 96.5928 134.834C96.2089 135.768 95.8895 136.776 95.4132 137.665C95.0215 138.397 93.9533 137.873 94.1246 137.121C94.3494 136.134 94.7734 135.154 95.0972 134.194C95.4266 133.219 95.7493 132.243 96.0842 131.271C96.6667 129.581 97.3119 127.914 97.9604 126.249L98.6031 124.598C99.2336 122.98 99.8715 121.364 100.553 119.767L100.628 119.592C101.336 117.922 102.067 116.044 103.354 114.75C103.371 114.732 103.394 114.723 103.417 114.72C103.101 114.549 102.805 114.341 102.545 114.095L102.532 114.082C102.429 113.973 102.004 113.436 101.867 113.115C101.689 113.178 101.511 113.239 101.333 113.299C101.023 113.404 100.766 113.328 100.584 113.163L100.239 113.376C99.8695 113.602 99.4723 113.816 99.0643 113.827C98.5502 113.84 98.1462 113.556 97.8714 113.138C97.6243 112.764 97.4774 112.36 97.1648 112.025C96.8573 111.696 96.5014 111.418 96.1378 111.153L95.7092 110.841C94.9231 110.267 94.1611 109.687 93.5282 108.93C93.2099 108.547 92.7837 108.093 92.5901 107.633C92.5523 107.544 92.5289 107.461 92.5245 107.379C92.4822 107.667 92.4388 107.955 92.3954 108.242C91.7878 112.282 91.2971 116.351 91.1402 120.437C91.0634 122.452 91.0289 124.47 91.119 126.486C91.1635 127.493 91.237 128.499 91.3382 129.503C91.3883 130.006 91.4406 130.507 91.5018 131.008L91.5159 131.124C91.5336 131.278 91.5452 131.426 91.5319 131.567C92.0215 131.808 92.303 132.418 92.4989 132.894C92.648 133.257 92.5323 133.61 92.2919 133.865C92.579 134.126 92.8349 134.433 93.0497 134.785C93.0931 134.856 92.9996 134.912 92.944 134.867C92.5912 134.587 92.2118 134.357 91.8156 134.18C91.6075 134.259 91.3805 134.28 91.1713 134.222C90.9443 134.16 90.7485 134.008 90.6071 133.816C89.4821 133.631 88.3126 133.857 87.3 134.561C87.0897 134.708 86.8994 134.874 86.718 135.054C86.6868 135.086 86.6546 135.126 86.6223 135.164L86.8432 135.249C86.9347 135.284 87.0099 135.311 87.0385 135.317C87.2313 135.356 87.4272 135.377 87.623 135.394L87.9164 135.418C89.0437 135.512 90.1676 135.543 91.2158 136.015C91.4362 136.114 91.3594 136.453 91.1513 136.51C90.3859 136.717 89.6262 136.701 88.8471 136.646L88.6798 136.633C87.9554 136.578 87.1776 136.581 86.4709 136.381C86.6401 136.844 86.4097 137.448 85.7031 137.542C83.5811 137.825 81.4456 137.692 79.3213 137.505C77.1759 137.315 75.0316 137.136 72.8806 137.024C65.9228 136.658 58.9543 136.728 51.9903 136.828L48.0548 136.885C44.9164 136.929 41.7774 136.963 38.639 136.939L37.17 136.926C36.5492 136.92 35.928 136.912 35.3079 136.894L34.9359 136.881C34.197 136.855 33.2189 136.966 32.5768 136.529C32.0471 136.168 31.9292 135.507 32.2485 134.974C32.3409 134.821 32.4678 134.684 32.6002 134.55C32.8717 132.23 33.0242 129.899 33.1799 127.569C33.7208 119.414 33.4047 111.302 32.1573 103.23C28.8101 104.253 25.514 105.536 22.3025 106.912C20.5655 107.657 18.8373 108.429 17.1292 109.239C15.5702 109.979 14.0045 110.904 12.3387 111.384C12.1873 111.519 11.9755 111.583 11.7877 111.523L11.7634 111.515H11.7623C11.5909 111.555 11.4006 111.53 11.2137 111.418C11.1758 111.395 11.138 111.372 11.1002 111.348L11.0434 111.312C10.457 110.943 9.86722 110.487 9.45215 109.931C8.94806 110.398 8.40614 110.827 7.87312 111.261C7.29447 111.733 6.71805 112.207 6.14609 112.685C5.91908 112.875 5.6687 113.057 5.4684 113.276L5.43931 113.308C5.43465 113.313 5.4302 113.319 5.42612 113.324C6.29297 113.885 7.05189 114.736 7.7318 115.476C8.46189 116.27 9.16675 117.09 9.86583 117.912L10.5426 118.71C15.3283 124.362 20.1629 130.218 26.3586 134.371C27.3379 135.028 26.4042 136.627 25.4317 135.956C23.5911 134.688 21.8496 133.281 20.1771 131.799C17.2461 129.206 14.6088 126.296 12.1395 123.263C10.8899 121.729 9.67693 120.157 8.48848 118.574L8.08513 118.037C7.54761 117.321 7.01294 116.603 6.50106 115.869L6.39396 115.715C5.94497 115.067 5.46749 114.339 5.17797 113.593C5.06669 113.706 4.94094 113.8 4.75734 113.871C4.44353 113.994 4.05851 113.737 3.98173 113.431C3.79478 112.689 4.44019 112.247 4.96543 111.853C5.60305 111.377 6.25291 110.917 6.90389 110.46L7.13642 110.295C7.95048 109.718 8.76881 109.125 9.65579 108.669C9.6825 108.634 9.71477 108.6 9.75149 108.571C9.79378 108.538 9.83495 108.506 9.87723 108.473C8.81787 106.755 7.65613 105.104 6.35974 103.544C5.38494 102.37 4.35006 101.249 3.25508 100.188L2.76319 99.7113C2.01915 98.9927 1.24551 98.2639 0.419722 97.6393L0.16121 97.9324C-0.183983 98.3228 -0.532594 98.7102 -0.901146 99.077C-1.62668 99.7981 -2.3422 100.534 -3.05437 101.269C-4.2371 102.493 -5.37977 103.754 -6.51881 105.017L-7.0882 105.649C-8.27442 106.965 -9.54522 108.257 -10.6235 109.664L-10.6773 109.735C-11.1481 110.366 -11.4832 111.065 -11.2645 111.867C-11.0534 112.641 -10.5516 113.326 -10.119 113.994L-10.076 114.061C-8.31003 116.811 -6.41831 119.492 -4.39193 122.057C-0.333629 127.195 4.29553 132.064 9.81937 135.636C10.585 136.131 9.86944 137.362 9.10274 136.861C5.87679 134.753 2.91346 132.22 0.187152 129.5C-2.31549 127.004 -4.58333 124.256 -6.70874 121.435C-7.74474 120.058 -8.73734 118.653 -9.68876 117.217C-10.6113 115.822 -11.6784 114.388 -12.3472 112.85C-12.6977 112.041 -12.8268 111.165 -12.5397 110.313C-12.2764 109.529 -11.7557 108.879 -11.214 108.267L-11.1632 108.21C-9.918 106.811 -8.65054 105.429 -7.37196 104.06C-6.08892 102.687 -4.74691 101.363 -3.37708 100.077C-2.30102 99.0659 -1.17934 98.1744 0.0202351 97.3489C-0.0877045 97.2721 -0.195644 97.1986 -0.305809 97.1274C-0.640756 96.9093 -0.725328 96.4431 -0.431554 96.1471C0.37076 95.3368 1.29548 94.6325 2.16567 93.8949C2.98357 93.2015 3.80146 92.5072 4.61935 91.8128C6.28407 90.4018 7.94879 88.9897 9.6135 87.5775C12.6035 85.0415 15.5769 82.4877 18.5569 79.9405C19.7995 78.8788 21.0537 77.8301 22.3047 76.7785L24.5273 74.9081V74.9081L25.6143 73.9955C26.1713 73.529 26.7401 73.0677 27.3735 72.7119C28.8637 71.8748 30.6554 71.5126 32.2973 71.0691L32.4066 71.0394C34.2482 70.5354 36.0999 70.0613 37.9616 69.6384C39.8255 69.2156 41.6972 68.8306 43.5766 68.4821C45.2658 68.1684 46.9951 67.8992 48.7177 67.8591C49.145 67.6966 49.6813 67.6399 50.102 67.8135C50.2756 67.8858 50.457 67.9915 50.6183 68.125C51.4607 67.829 52.2919 67.6877 53.0787 67.187C53.8643 66.6874 54.5598 66.0308 55.1451 65.3075C56.3547 63.8097 56.9879 62.0404 57.4129 60.1919ZM76.7764 110.911C76.1087 110.865 75.5078 111.14 74.9114 111.434C75.2474 111.58 75.5835 111.725 75.9196 111.868L78.1562 112.823V112.823C78.8951 113.138 79.6774 113.412 80.3796 113.8C80.4297 113.828 80.4697 113.861 80.4998 113.9C81.2297 113.433 82.002 113.016 82.742 112.571C82.9111 112.47 83.0814 112.369 83.2517 112.268C82.3703 112.563 81.4668 112.711 80.5098 112.434C79.2334 112.065 78.1251 111.006 76.7764 110.911ZM78.6058 108.672L78.4859 108.591C77.8383 108.147 77.0656 107.576 76.279 107.975C75.9085 108.163 75.6047 108.466 75.2397 108.669C74.8725 108.874 74.4685 109.031 74.059 109.125C73.3791 109.282 72.6002 109.305 71.8691 109.154L71.8802 110.142V110.142C72.4333 110.37 72.983 110.604 73.5327 110.84C73.8896 110.718 74.2331 110.571 74.5942 110.411L74.838 110.301C75.5335 109.989 76.2356 109.78 77.0046 109.879C78.4523 110.064 79.5461 111.14 80.9304 111.499C82.6274 111.94 84.1586 110.673 85.7621 110.36C86.0265 110.308 86.299 110.278 86.5699 110.273L86.6601 110.273L86.7002 110.249C87.0452 110.047 87.5615 109.853 87.8019 109.512C88.0634 109.143 88.0856 108.524 88.1713 108.09C88.1802 108.047 88.1891 108.002 88.1969 107.959C88.0456 107.959 87.892 107.967 87.7362 107.996C87.2466 108.086 86.7859 108.259 86.3296 108.453C85.4672 108.819 84.6238 109.237 83.7157 109.48C82.8266 109.719 81.8974 109.833 80.9816 109.701C80.0881 109.571 79.3458 109.169 78.6058 108.672ZM78.7451 105.199L78.6111 105.112C78.2574 104.887 77.8518 104.653 77.4185 104.736C77.0312 104.81 76.6985 105.119 76.3613 105.309C75.6213 105.726 74.7912 105.954 73.9444 106.012C73.24 106.06 72.5089 105.974 71.8312 105.765L71.8546 107.953V107.953C72.1027 108.032 72.3598 108.089 72.6302 108.109C73.4514 108.17 74.2526 107.973 74.9414 107.52L75.2899 107.289C75.8862 106.897 76.4457 106.586 77.2349 106.729C78.016 106.871 78.6715 107.372 79.3102 107.808L79.4149 107.879C80.1485 108.363 80.892 108.675 81.7917 108.683C82.7631 108.691 83.7235 108.42 84.6282 108.088C85.5262 107.758 86.3797 107.363 87.34 107.242C87.6338 107.205 87.9921 107.194 88.3293 107.252C88.3738 107.004 88.4161 106.757 88.4561 106.509C88.5429 105.976 88.6175 105.444 88.682 104.911C86.9784 104.452 85.4049 105.935 83.8225 106.393C82.9045 106.658 81.9052 106.654 80.9871 106.398C80.1377 106.161 79.4699 105.669 78.7451 105.199ZM78.7494 101.514C78.3855 101.444 78.0261 101.612 77.7167 101.784C76.9277 102.222 76.2467 102.83 75.3532 103.061C74.2037 103.357 72.9462 103.102 71.8045 102.618C71.809 103.293 71.8145 103.969 71.8201 104.644C72.0348 104.726 72.2552 104.791 72.48 104.843C73.2789 105.026 74.1258 105.001 74.9125 104.771C75.7148 104.536 76.3302 103.902 77.1347 103.704C77.9574 103.501 78.7329 103.896 79.3959 104.345L79.5954 104.482C80.3533 104.996 81.0883 105.443 82.0365 105.53C83.0391 105.622 83.9104 105.309 84.8062 104.892L85.0147 104.796C86.1489 104.275 87.6211 103.682 88.7532 104.275C88.8423 103.433 88.9068 102.592 88.9502 101.75C88.7944 101.692 88.6331 101.65 88.4472 101.649C88.0032 101.646 87.537 101.787 87.123 101.932C86.2183 102.252 85.376 102.728 84.4802 103.07C83.6311 103.395 82.6908 103.564 81.785 103.418C80.946 103.283 80.3162 102.845 79.7364 102.244L79.6522 102.155C79.3979 101.885 79.1259 101.587 78.7494 101.514ZM79.4137 98.3903C78.9942 98.169 78.4834 97.963 77.9983 98.0275C77.5353 98.0886 77.2268 98.4026 76.9418 98.7383L76.7874 98.922C76.2774 99.5254 75.7755 100.033 74.9893 100.281C74.1747 100.537 73.3112 100.437 72.5534 100.062C72.2841 99.9282 72.0338 99.7624 71.7823 99.5988L71.7956 101.374V101.374C72.2986 101.624 72.8105 101.85 73.3724 101.987C74.4095 102.239 75.2909 102.052 76.1777 101.48L76.2709 101.42C76.9389 100.981 77.6238 100.459 78.4489 100.41C79.2542 100.362 79.8585 100.808 80.3888 101.355L80.4508 101.419C81.1196 102.125 81.7951 102.469 82.7899 102.387C83.7544 102.309 84.657 101.883 85.5405 101.516L85.6208 101.483C86.4287 101.151 87.3601 100.809 88.2469 100.936C88.4595 100.966 88.7343 101.032 88.9792 101.147C89.0148 100.316 89.0315 99.4853 89.0348 98.6529C88.5307 98.2157 87.7462 98.1433 87.1153 98.3224C86.1271 98.6028 85.3181 99.3261 84.3745 99.719C83.5377 100.067 82.6652 100.145 81.8117 99.8157C80.9304 99.4753 80.2394 98.8265 79.4137 98.3903ZM88.9792 94.8945C87.5025 94.9457 86.0581 95.906 84.6482 96.2721C83.0733 96.6808 81.7879 96.1237 80.3849 95.5052L80.2038 95.4254C79.4838 95.1094 78.7104 94.8255 77.9126 94.9546C77.1347 95.0816 76.447 95.5121 75.7783 95.9016L75.6501 95.9754C74.4318 96.6689 73.1912 97.1437 71.7689 97.0254C71.7767 97.4717 71.7734 97.9168 71.7745 98.353C72.0082 98.4865 72.2329 98.6379 72.4466 98.7759L72.5233 98.8245C73.2014 99.2485 73.9004 99.5271 74.7089 99.2655C75.4901 99.0118 75.8573 98.3319 76.3936 97.7721C76.8866 97.258 77.5298 96.9455 78.2509 96.9754C79.0265 97.0064 79.7598 97.3482 80.4008 97.7655C81.0417 98.1828 81.6615 98.7223 82.4115 98.9317C84.0941 99.3989 85.5351 97.6197 87.1264 97.3426C87.7941 97.2258 88.5307 97.3738 89.0348 97.7765C89.0292 96.8174 89.0081 95.8559 88.9792 94.8945ZM76.269 94.4914C76.0609 94.4991 75.8528 94.508 75.6447 94.5169C74.8747 94.5503 74.1046 94.5882 73.3346 94.6316C72.8016 94.6604 72.1461 94.8241 71.6231 94.6616C71.6098 94.715 71.592 94.7663 71.5686 94.8163C71.6476 95.2102 71.6966 95.6175 71.7266 96.0292C72.2096 96.0815 72.7003 96.0637 73.1766 95.9647C74.3194 95.7277 75.2474 95.0066 76.269 94.4914ZM88.9569 94.161C86.145 94.3546 83.3115 94.288 80.4949 94.3489L80.157 94.3568C80.1437 94.3568 80.1303 94.358 80.117 94.358C80.44 94.4832 80.7604 94.6265 81.0798 94.7725L81.3989 94.9188C82.1534 95.266 82.9212 95.5497 83.7658 95.4885C84.6705 95.4229 85.5229 95.0535 86.3686 94.7552C87.1753 94.4703 88.1045 94.2789 88.9647 94.4036C88.9625 94.3223 88.9602 94.2422 88.9569 94.161Z" fill="black"/>
<path fill-rule="evenodd" clip-rule="evenodd" d="M87.5859 42.1974C88.2752 37.2229 86.8032 32.4223 84.8962 27.8759C84.7915 27.5991 84.6254 27.3593 84.4118 27.1888C79.0301 16.3417 71.1223 15.3595 60.0903 16.1065C59.7644 16.0993 59.7451 16.1051 59.4976 15.9943C59.4566 11.5879 54.4241 9.25389 50.5944 10.7077C33.6099 18.6006 38.9505 40.8211 42.3304 55.3279C43.5362 60.9435 44.7423 66.5588 45.9484 72.1742C45.9889 72.3621 46.0742 72.5244 46.1877 72.6613C46.0126 72.7277 45.8373 72.79 45.6654 72.8486C45.273 72.9821 45.4289 73.5671 45.8373 73.4723C46.2376 73.3794 46.6233 73.2548 47.0048 73.1192C47.5997 73.2483 48.0985 72.8596 48.5655 72.5496C54.0344 70.387 56.3303 63.2796 57.733 58.0436C63.4361 62.0674 72.549 65.081 79.0698 61.4627C85.1798 57.7832 87.3803 50.1078 86.9462 43.3333C87.3921 43.1281 87.572 42.6808 87.5837 42.2144H87.5863C87.5862 42.2087 87.5859 42.2031 87.5859 42.1974V42.1974Z" fill="white"/>
<path fill-rule="evenodd" clip-rule="evenodd" d="M54.1556 10.3689C54.2261 10.4048 54.3065 10.4457 54.3951 10.4908C54.7402 10.6661 55.2105 10.904 55.7115 11.154C56.4825 11.5388 57.3229 11.951 57.892 12.2092C57.9924 12.3088 58.0891 12.4119 58.1818 12.5184C57.6525 12.2983 56.5872 11.7777 55.637 11.3034C55.1355 11.0531 54.6648 10.815 54.3195 10.6396C54.1468 10.5518 54.0054 10.4797 53.9073 10.4296L53.7938 10.3715L53.7716 10.3601L52.0312 10.3429C52.7366 10.245 53.4558 10.2567 54.1556 10.3689ZM53.6308 68.1984C53.7389 68.0379 53.8446 67.875 53.9481 67.7099C53.9803 67.6045 54.0136 67.4974 54.0481 67.3888C54.4187 66.2221 54.913 64.893 55.4079 63.6386C55.9026 62.3845 56.3974 61.2061 56.7686 60.3412C56.9541 59.9088 57.1088 59.5548 57.217 59.3089C57.2711 59.186 57.3136 59.0901 57.3426 59.025L57.3756 58.9508L57.3841 58.9319L57.3862 58.9271L57.3868 58.9259L57.3869 58.9256C57.3869 58.9255 57.3869 58.9255 57.3108 58.8913L57.3869 58.9255L57.402 58.8919L57.3874 58.8581L56.3346 56.4306L56.3311 56.4226L56.326 56.4154L51.5249 49.6742L51.5044 49.6455L51.4696 49.6401L51.4691 49.6401L51.4673 49.6398L51.4593 49.6384C51.4522 49.6372 51.4414 49.6353 51.4272 49.6327C51.3988 49.6274 51.3568 49.6191 51.3031 49.607C51.1956 49.5829 51.0415 49.544 50.8564 49.485C50.4859 49.3669 49.9925 49.1687 49.4997 48.8485C48.5165 48.2099 47.535 47.0863 47.535 45.1327C47.535 43.1483 47.7966 42.2248 48.0462 41.7995C48.1698 41.5888 48.2882 41.5042 48.367 41.4698C48.4067 41.4525 48.4383 41.4471 48.4582 41.4456C48.4682 41.4448 48.4754 41.4451 48.4793 41.4454L48.4824 41.4456L48.4824 41.4456L48.5909 41.4671L48.58 41.3553L47.8409 33.7777L47.8441 33.7645L47.863 33.6862C47.8797 33.6175 47.9043 33.5164 47.9363 33.3871C48.0003 33.1286 48.0936 32.7574 48.2108 32.3068C48.4454 31.4055 48.7755 30.187 49.1582 28.9174C49.5411 27.6475 49.976 26.328 50.42 25.2243C50.6421 24.6724 50.8658 24.1758 51.0859 23.7669C51.3067 23.3567 51.5209 23.0401 51.7225 22.8439C52.5608 22.0278 54.2606 20.6949 55.7549 19.5633C56.5012 18.9982 57.1949 18.4842 57.7021 18.1115C57.9556 17.9252 58.1625 17.7742 58.306 17.6698L58.4716 17.5496L58.5148 17.5183L58.5259 17.5103L58.5286 17.5083L58.5293 17.5078L58.5295 17.5077L58.4807 17.44L58.5295 17.5077L58.5571 17.4878L58.5629 17.4543L58.4807 17.44L58.5629 17.4542L58.563 17.454L58.5631 17.4534L58.5635 17.4508L58.5652 17.4408L58.5717 17.4022C58.5773 17.3683 58.5854 17.3188 58.5954 17.2556C58.6152 17.1292 58.6425 16.9484 58.6722 16.7302C58.7315 16.294 58.8004 15.7077 58.8384 15.1087C58.876 14.5187 58.8839 13.9123 58.822 13.4238C58.7455 13.2878 58.6633 13.1558 58.5757 13.0277C58.6086 13.1442 58.6345 13.2778 58.6539 13.4254C58.7165 13.9012 58.7097 14.5034 58.6719 15.0981C58.6341 15.6918 58.5658 16.2738 58.5068 16.7077C58.4773 16.9246 58.4502 17.1043 58.4305 17.2296C58.4206 17.2923 58.4126 17.3414 58.4071 17.3748L58.4041 17.3924L58.3737 17.4144L58.2078 17.5348C58.0641 17.6394 57.857 17.7905 57.6032 17.977C57.0956 18.35 56.4013 18.8645 55.6541 19.4302C54.1616 20.5605 52.4531 21.8997 51.606 22.7243C51.3862 22.9383 51.1623 23.2727 50.9389 23.6878C50.7149 24.1041 50.4885 24.6068 50.2652 25.162C49.8185 26.2723 49.3819 27.5972 48.9984 28.8692C48.6149 30.1415 48.2842 31.3622 48.0493 32.2648C47.9319 32.7161 47.8384 33.088 47.7743 33.347C47.7422 33.4766 47.7175 33.5779 47.7008 33.6469L47.6818 33.7256L47.677 33.7458L47.6757 33.7509L47.6754 33.7522L47.6753 33.7525C47.6753 33.7526 47.6753 33.7526 47.7565 33.7719L47.6753 33.7526L47.6721 33.7662L47.6734 33.78L48.4054 41.2843C48.375 41.2898 48.3394 41.2997 48.3002 41.3168C48.1829 41.368 48.04 41.4803 47.9022 41.715C47.6292 42.1803 47.368 43.1415 47.368 45.1327C47.368 47.1548 48.3892 48.3262 49.4087 48.9885C49.9173 49.3189 50.4252 49.5227 50.8057 49.644C50.9961 49.7047 51.1549 49.7449 51.2665 49.7699C51.3223 49.7824 51.3664 49.7911 51.3966 49.7968L51.4089 49.799L56.185 56.5051L57.2196 58.8908L57.1901 58.9571C57.161 59.0225 57.1184 59.1185 57.0642 59.2417C56.9558 59.488 56.801 59.8425 56.6152 60.2754C56.2436 61.1413 55.7481 62.3213 55.2526 63.5774C54.7571 64.8333 54.2612 66.1664 53.8891 67.3382C53.7945 67.636 53.7076 67.9241 53.6308 68.1984Z" fill="#A55728"/>
<path fill-rule="evenodd" clip-rule="evenodd" d="M49.0275 11.1217C50.2883 10.3049 51.9067 10.0009 53.3922 10.0605C54.1845 10.0922 54.9242 10.2897 55.6546 10.5864C56.3316 10.8614 56.9285 11.2566 57.5877 11.5577C57.6278 11.5759 57.5975 11.6321 57.5597 11.6245C56.7791 11.4669 55.8625 11.5621 55.071 11.6749L54.9923 11.6862C54.2143 11.7992 53.4227 11.8576 52.6559 12.0369C51.2433 12.367 49.9295 13.0864 49.1542 14.3378C48.1419 15.972 47.8824 18.0874 47.9907 19.9729C48.0454 20.9269 48.2335 21.8654 48.5264 22.7748C48.7022 23.3207 49.1107 23.8698 49.3015 24.4426C49.4467 24.1715 49.5966 23.9031 49.7519 23.6379C49.0447 23.3046 48.8464 22.3784 48.8098 21.5424C48.7009 21.4372 48.6307 21.2848 48.6284 21.145C48.6222 20.769 48.7106 20.4286 48.8611 20.1171C48.947 19.2349 49.129 18.3553 49.4424 17.5287C50.6724 14.283 53.9171 11.3577 57.5967 11.6467C58.608 11.7262 59.5921 12.1556 60.115 13.0685C60.535 13.8016 60.5378 14.6859 60.2481 15.4657C60.1621 15.6971 60.0504 15.9061 59.9191 16.0967C60.3167 15.9959 60.715 15.8992 61.1126 15.8034C62.492 15.4709 63.8784 15.2104 65.2907 15.0655C67.2142 14.8683 69.1772 15.1667 70.9397 15.9344C71.4231 16.0587 71.9042 16.1922 72.3824 16.3349C74.4865 16.9622 76.6453 17.7817 78.3449 19.2137C79.1268 19.8726 79.6864 20.6391 80.1407 21.4808C81.842 22.9976 83.4689 24.7171 84.6173 26.684C86.9834 30.7367 87.5484 35.7496 87.6457 40.3569C87.735 44.5892 87.3633 48.865 86.5701 53.0235C86.21 54.9108 85.6279 56.6648 84.4503 58.2125C83.139 59.9361 81.3901 61.294 79.4276 62.2052C75.4322 64.0602 70.4871 64.33 66.6035 62.0318C65.4354 61.3407 66.4872 59.539 67.6671 60.2123C71.5011 62.4001 76.3943 61.9004 80.0833 59.5809C81.6418 58.6011 82.9848 57.2612 83.838 55.6204C84.461 54.422 84.7284 53.0477 84.9599 51.7096L85.083 50.9938C85.7977 46.879 86.1208 42.6583 85.9489 38.484C85.7773 34.3199 85.1169 29.8098 82.7582 26.2698C81.5142 24.4025 79.9277 22.7667 78.2613 21.2752C78.1442 21.1703 78.0269 21.066 77.9095 20.9619C77.2582 20.5705 76.5832 20.2288 75.919 19.9372L75.7777 19.876C75.3956 19.7132 74.8613 19.5028 74.3656 19.3346C73.6569 19.0941 72.9369 18.8805 72.2138 18.6879C71.8348 18.587 71.454 18.4944 71.0722 18.406C71.2053 18.528 71.3376 18.6512 71.4675 18.7775C72.0834 19.3759 72.5719 20.0869 73.1557 20.7143C73.2217 20.7851 73.1385 20.8884 73.0546 20.8453C72.1667 20.3897 71.1821 20.0948 70.2551 19.7257C69.3785 19.3768 68.5267 18.975 67.6657 18.59C67.4501 18.4934 67.2351 18.3903 67.0207 18.2882C66.1739 18.2969 65.3272 18.3168 64.4824 18.365C65.5037 19.092 66.4364 19.9512 67.209 20.8934C67.2728 20.9709 67.2148 21.0952 67.1076 21.0677C65.4902 20.6536 63.9521 20.045 62.4149 19.4072L61.6794 19.101V19.101C61.1388 19.0736 60.5975 19.0608 60.056 19.0688L59.7936 19.0732C59.2251 19.0841 58.6578 19.1066 58.0944 19.1927C57.9604 19.2131 57.8291 19.2324 57.6987 19.2502C56.9058 19.5738 56.1429 19.964 55.4564 20.4782L55.6352 20.4676V20.4676C56.7207 20.4059 57.8273 20.4993 58.8784 20.7795C60.9208 21.3242 62.6636 22.6359 63.9317 24.3083C63.9696 24.3583 63.8959 24.428 63.8461 24.3939C62.2507 23.3017 60.4003 22.7516 58.5044 22.4528C57.5881 22.3083 56.6443 22.2585 55.7192 22.3305C54.9531 22.39 54.1607 22.6599 53.3986 22.5289C53.1908 22.7876 52.9913 23.0542 52.7992 23.3266C52.9001 23.3201 53.0015 23.3142 53.1036 23.3094C54.1981 23.258 55.3128 23.3282 56.3815 23.5802C58.5161 24.0837 60.2999 25.3652 61.9317 26.7721C61.964 26.7999 61.9223 26.8495 61.8874 26.8295C60.1177 25.8082 58.0609 25.5029 56.0562 25.3187C55.0467 25.2259 54.0258 25.1838 53.0141 25.2644C52.5506 25.3012 52.0923 25.3776 51.6301 25.4252C51.5927 25.429 51.5539 25.4301 51.5154 25.4318C51.1805 26.0634 50.8768 26.7064 50.6028 27.3475C51.439 27.1231 52.3411 27.0054 53.2044 27.0635C54.9579 27.1816 56.6972 27.9855 58.0969 29.0139C58.1408 29.046 58.1163 29.1317 58.0568 29.1092C56.5332 28.5336 55.0228 28.5289 53.4327 28.751C52.6873 28.8552 51.9494 28.9965 51.2292 29.2182C50.8671 29.3297 50.5091 29.4513 50.1655 29.6114C50.0095 29.684 49.8576 29.7686 49.704 29.8483C49.5812 30.2654 49.4713 30.6864 49.3723 31.1099C51.9713 31.2565 54.4198 32.4832 56.5506 33.8911C56.6021 33.9251 56.57 34.0199 56.5063 33.9959C55.2343 33.516 53.8506 33.2941 52.5013 33.1649C51.3216 33.0519 50.1638 33.1133 48.9908 33.1463C48.928 33.592 48.8771 34.039 48.8403 34.4869C49.0289 34.5397 49.214 34.5967 49.3919 34.6502C49.9771 34.826 50.5612 35.0627 51.1072 35.3371C52.2165 35.8945 53.1152 36.648 54.0196 37.4856C54.0668 37.5293 54.0176 37.6248 53.9536 37.5989C52.9039 37.1745 51.757 36.9028 50.652 36.6623C50.0801 36.5379 49.5081 36.4231 48.9322 36.3177C48.8764 36.3075 48.8198 36.2989 48.7633 36.2904C48.7578 37.3116 48.8156 38.333 48.9429 39.3461L48.9676 39.536C49.0366 40.0487 48.9802 40.5447 48.6407 40.8989C49.1102 40.5868 49.6475 40.3706 50.2429 40.2877C51.811 40.0694 53.2629 40.6959 54.2496 41.9078C54.2958 41.9644 54.2246 42.0387 54.1685 41.9889C53.2109 41.1368 51.7353 40.986 50.5461 41.3872C49.4451 41.7585 48.6174 42.6451 48.2857 43.7544C47.9331 44.9333 48.0946 46.2348 48.7375 47.2857C49.0577 47.8093 49.5203 48.2773 50.0992 48.5075C50.1706 48.536 50.2434 48.5597 50.3169 48.5803C50.6664 48.4526 51.0424 48.5104 51.4017 48.6723L51.4483 48.6943V48.6943C51.6775 48.6929 51.9058 48.6859 52.1275 48.6879C52.5592 48.692 52.7667 49.1503 52.5856 49.4913C52.6883 49.6795 52.7635 49.8909 52.8537 50.0753C53.0168 50.4081 53.1875 50.7387 53.3591 51.0672C53.6018 51.3456 53.8335 51.6338 53.9909 51.9698C54.0554 52.1077 54.1164 52.257 54.1632 52.4068C54.298 52.6097 54.4351 52.8114 54.5755 53.0122C55.0296 53.6607 55.5077 54.2751 56.038 54.8638C56.3567 55.2177 56.7233 55.5336 57.0607 55.8728C57.163 55.8864 57.2632 55.956 57.2948 56.0562L57.3224 56.152V56.152C57.4312 56.2745 57.5352 56.4007 57.6289 56.5351C57.8368 56.8332 57.7798 57.1357 57.5972 57.3537C57.8864 59.1582 57.6894 61.0779 57.3025 62.8277C57.0524 63.9583 56.7603 65.0878 56.3682 66.1785C56.1689 66.7329 55.9276 67.2654 55.5941 67.7524C55.4112 68.0192 55.1731 68.33 54.906 68.584C54.8654 68.8795 54.8127 69.1726 54.7371 69.46C53.8412 72.8647 50.1739 73.9013 47.1033 74.3362C46.5107 74.4199 45.9241 74.2768 45.6013 73.7248C45.5268 73.5974 45.4767 73.4599 45.4498 73.3187C45.316 73.2831 45.1874 73.2205 45.072 73.1305C45.0527 73.3438 45.0305 73.5579 45.0023 73.7743C44.9321 74.3153 44.2018 74.478 44.0187 73.9074C43.2462 71.4991 42.8266 68.9599 42.2973 66.4852C41.769 64.0157 41.1791 61.5593 40.6333 59.0936L39.9422 55.9818C38.2559 48.3619 36.6764 40.6446 37.0641 32.8076C37.2757 28.5296 38.0607 24.2627 39.7408 20.3095C41.1403 17.0162 43.5023 13.3163 47.3179 12.643C47.3442 12.6384 47.3675 12.6411 47.3893 12.6467C47.8425 12.0574 48.3838 11.5386 49.0275 11.1217ZM51.3299 52.542C51.6376 53.5628 51.8573 54.6092 51.9768 55.6772C52.1759 57.4571 52.0772 59.2804 51.9907 61.065C51.9111 62.7046 51.7223 64.3584 51.4008 65.9684C51.0923 67.5142 50.6086 69.0299 49.8897 70.4361C49.7734 70.6635 49.6484 70.885 49.5171 71.1022C49.9147 70.9697 50.2737 70.8154 50.6476 70.6015C51.1182 70.3323 51.5488 69.9851 51.7844 69.6188C52.1625 69.0314 52.2894 68.3788 52.3447 67.6786C52.4869 65.8779 52.5527 64.0719 52.6434 62.2682L52.6635 61.8754C52.8102 59.0572 53.0024 56.167 52.7152 53.3458C52.3112 53.2396 51.9466 53.0312 51.6102 52.7697C51.5174 52.6976 51.4237 52.6213 51.3299 52.542ZM48.2569 49.13C48.3418 49.9873 48.4231 50.8447 48.4966 51.7028C48.7576 54.7485 48.9188 57.8112 48.7705 60.8676C48.6932 62.4592 48.5381 64.0553 48.2699 65.6266C48.1491 66.3349 48.0029 67.043 47.8397 67.7436L47.7847 67.9768C47.619 68.6707 47.5134 69.538 46.9828 70.0427L46.9868 70.1474V70.1474C47.3592 69.5821 47.7038 68.9466 47.9505 68.3549C49.0498 65.7189 49.2506 62.8492 49.4493 60.0385C49.5717 58.3062 49.6624 56.5717 49.804 54.8409L49.8728 54.008C49.9517 53.0386 50.0197 52.0765 50.0104 51.108C49.7987 50.7923 49.6266 50.4603 49.5198 50.1196C49.5027 50.0647 49.4909 50.0093 49.4826 49.9539C49.0349 49.7417 48.6132 49.452 48.2569 49.13ZM54.2741 55.1611C54.495 55.8961 54.6753 56.6404 54.8037 57.3879C55.0082 58.5777 55.131 59.7749 55.1849 60.9762L55.2978 60.5518C55.5819 59.4903 55.8838 58.4273 56.258 57.3972C55.6661 56.9828 55.1716 56.3321 54.7414 55.7882C54.5806 55.585 54.4247 55.3752 54.2741 55.1611ZM45.7984 22.4746C45.5709 23.2088 45.3721 23.9513 45.1666 24.6916C44.6839 26.4304 44.3705 28.2168 44.1531 30.0066C43.2855 37.1527 44.0081 44.3277 44.9532 51.427C45.3448 54.3685 45.7705 57.3057 46.136 60.2507C46.1457 59.9617 46.1538 59.6727 46.159 59.384C46.2701 53.1331 45.2179 46.9696 44.7966 40.751L44.7713 40.372C44.5804 37.4644 44.4636 34.5025 44.8092 31.6055C44.987 30.1144 45.3004 28.6551 45.7173 27.2142L45.9656 26.3679C46.1333 25.7988 46.3116 25.2146 46.5232 24.6481C46.495 24.5938 46.468 24.539 46.443 24.4841C46.1502 23.8405 45.9465 23.1639 45.7984 22.4746ZM46.531 14.0506C44.3471 16.8663 42.5144 19.8573 41.4056 23.2976C38.8681 31.1712 39.4346 39.5906 40.9051 47.6162C41.598 51.3976 42.4916 55.135 43.3069 58.8902C42.4342 52.1469 41.3087 45.4183 41.1296 38.6101C41.0317 34.8943 41.2239 31.1612 41.9084 27.5028L41.9489 27.2877C42.2423 25.7416 42.6057 24.1035 43.3496 22.7141C43.7535 21.9596 44.1994 21.2556 44.7282 20.5817C44.9512 20.2975 45.2016 20.0696 45.4672 19.8611C45.3893 17.9201 45.6828 15.8153 46.531 14.0506ZM50.0943 44.0508C51.1809 44.0935 52.2664 44.3964 53.122 45.1026C53.7913 45.6549 52.8368 46.5883 52.1729 46.0516C51.4509 45.468 50.8034 44.8051 50.0338 44.2744C49.9421 44.211 49.9673 44.0458 50.0943 44.0508ZM48.2919 41.1559C48.0503 41.2805 47.8102 41.3056 47.5366 41.2384C47.5266 41.2359 47.517 41.2332 47.5075 41.2302L47.4516 41.212C47.4755 41.4711 47.5007 41.7301 47.5256 41.9892C47.7464 41.6783 48.0024 41.3967 48.2919 41.1559ZM47.2103 25.5228C47.1142 26.3263 47.0515 27.1336 47.0182 27.9421C46.9857 28.7298 46.9722 29.5199 46.9685 30.3103L46.9675 30.6491L46.969 30.6426C47.3425 29.0489 47.8709 27.4804 48.5457 25.9795C48.4295 25.9989 48.3115 25.9958 48.1954 25.9817C47.9296 25.9496 47.6748 25.8317 47.4468 25.6939C47.3637 25.6436 47.2857 25.5849 47.2103 25.5228ZM58.2931 16.2105C57.8287 16.4204 57.3802 16.6616 56.9142 16.8667C55.9901 17.2736 55.0858 17.7465 54.2305 18.2834C53.365 18.8268 52.5312 19.3989 51.7644 20.0765C51.6746 20.156 51.5856 20.2363 51.4967 20.3166C51.4787 20.4918 51.4657 20.6678 51.4598 20.8451C51.4566 20.9405 51.4565 21.0402 51.4577 21.1427C52.9046 19.3503 54.6541 17.9362 56.8734 17.0467C57.2581 16.8924 57.6491 16.7551 58.0437 16.628C58.1376 16.4976 58.2218 16.3592 58.2931 16.2105ZM58.2517 14.491C57.9937 14.1485 57.2519 14.1764 56.7842 14.2528C56.028 14.3763 55.3619 14.6407 54.7137 15.0235C53.9475 15.4757 53.2866 16.0884 52.7695 16.809C53.024 16.6655 53.2833 16.5301 53.548 16.4043L53.7294 16.3187C54.7321 15.8486 55.8182 15.4018 56.915 15.256C57.4224 15.1886 57.9681 15.091 58.4808 15.146C58.4555 14.8968 58.3814 14.6631 58.2517 14.491Z" fill="black"/>
<path fill-rule="evenodd" clip-rule="evenodd" d="M68.1169 50.9489C69.0073 49.1685 77.1739 49.9688 77.1739 49.9688L77.8638 55.6281C77.8638 55.6281 73.9233 56.8947 71.5777 56.6293C69.2322 56.3639 67.2265 52.7294 68.1169 50.9489Z" fill="white"/>
<path fill-rule="evenodd" clip-rule="evenodd" d="M68.6922 53.921C68.4102 53.3174 74.2485 51.6716 76.0561 52.7963C77.8637 53.921 77.2985 55.455 77.2985 55.455C77.2985 55.455 69.6957 57.1892 68.6922 53.921Z" fill="white"/>
<path fill-rule="evenodd" clip-rule="evenodd" d="M67.6105 49.8953C68.9732 48.3118 71.2683 48.2015 73.1695 48.5974C74.3895 48.8516 75.5774 49.2749 76.8166 49.4318C77.3954 49.5051 77.9803 49.527 78.5633 49.5162C79.136 49.5057 79.7095 49.3903 80.2801 49.4118C80.3678 49.415 80.401 49.5302 80.325 49.577C79.5421 50.0578 78.4875 50.2121 77.5628 50.3061C77.5657 50.3745 77.5698 50.4413 77.5793 50.4979C77.6046 50.6489 77.6276 50.7989 77.6462 50.9509C77.6881 51.2938 77.7351 51.6355 77.7819 51.9777C77.8743 52.6511 77.9033 53.3458 78.0657 54.0076L78.0941 54.1176C78.1317 54.2567 78.1403 54.3821 78.1277 54.4952L78.1653 54.4781L78.2841 54.4206L78.362 54.3838C78.6462 54.2521 78.9173 54.1561 79.2515 54.1881C79.5059 54.2124 79.7194 54.3859 79.721 54.6575C79.7273 55.8766 78.0844 56.2686 77.1446 56.5019L76.8691 56.5698C75.6729 56.8616 74.4516 57.1173 73.2213 57.1785C71.247 57.2765 69.0285 56.7319 67.737 55.1305C66.532 53.6364 66.3111 51.4051 67.6105 49.8953ZM76.5762 55.0168C76.3691 53.1814 74.1136 53.0805 73.4648 54.2444C73.1769 52.622 68.9176 54.1042 69.2507 54.4267C70.513 55.6492 72.4287 55.7592 74.0755 55.5331C74.9142 55.4179 75.7536 55.2304 76.5762 55.0168ZM74.0731 50.2064L73.5061 50.1247L73.2828 50.094C71.877 49.9057 70.2962 49.8085 69.1404 50.7097C68.7185 51.0387 68.481 51.4678 68.3923 51.9287C69.4859 51.7666 70.5835 51.6429 71.6844 51.54L71.9847 51.5124C72.6735 51.4503 73.362 51.3849 74.0501 51.3162L74.5392 51.2667L75.028 51.2159C75.2001 51.1979 76.3595 51.1386 76.5775 51.1784C76.6007 50.9826 76.6311 50.5587 76.6803 50.3681C75.8566 50.3961 75.0365 50.3349 74.2176 50.2261L74.0731 50.2064ZM76.6833 42.0026C77.5236 42.5133 78.804 43.7043 77.9 44.9706C76.836 46.0871 75.304 44.807 74.549 44.228C73.849 43.7793 73.0625 44.9333 73.712 45.4573C79.1672 49.4961 81.3811 42.1361 77.1084 41.402C76.6379 41.3211 76.4632 41.8445 76.6833 42.0026ZM78.1873 44.1549L78.228 44.1328L78.2417 44.1245C78.2654 44.1091 78.2503 44.1108 78.1963 44.1295L78.1558 44.144V44.1727C78.1662 44.1663 78.1773 44.1615 78.1873 44.1549ZM67.4253 39.6169L67.4252 39.5918C67.4267 38.8822 67.84 37.262 68.8616 37.262C69.4997 37.262 69.8872 38.3647 69.9543 39.5013L69.9566 39.5477C69.9862 40.2543 69.7923 41.799 68.8616 41.799C67.921 41.799 67.435 40.336 67.4253 39.6169V39.6169ZM82.4651 39.3946L82.4653 39.3695C82.4637 38.6599 82.0504 37.0398 81.0289 37.0398C80.4066 37.0398 80.0228 38.088 79.9418 39.1939L79.9362 39.2791C79.8959 39.9619 80.0772 41.5767 81.0289 41.5767C81.9694 41.5767 82.4554 40.1138 82.4651 39.3946V39.3946ZM68.0082 32.4239C68.8419 32.2971 69.9459 32.5379 70.3346 33.3856C70.5077 33.7633 70.3027 34.1809 69.8661 34.2019C68.8111 34.2524 67.8649 34.0176 66.9388 34.7036C66.5403 34.9989 66.2052 35.4078 65.9241 35.8156L65.8177 35.9708L65.7296 36.0986C65.5386 36.3793 65.3578 36.6843 65.3861 37.023C65.3944 37.1232 65.2919 37.2184 65.1946 37.2144C64.5876 37.1894 64.5223 36.4285 64.6021 35.9715C64.7506 35.1233 65.1611 34.3272 65.73 33.6859C66.3276 33.0124 67.1164 32.5595 68.0082 32.4239ZM79.4908 33.4534C80.0657 33.0838 80.801 32.9418 81.4745 32.9962C82.8024 33.1032 85.03 34.232 84.7368 35.8538C84.6463 36.354 83.9506 36.618 83.5407 36.3405C83.0999 36.0421 82.9926 35.5784 82.6646 35.1885C82.4029 34.877 82.0712 34.6517 81.716 34.4598C81.3658 34.2704 80.9608 34.1557 80.5635 34.1139L80.4973 34.1076C80.2582 34.0872 79.0506 34.0926 79.2279 34.5434C79.2626 34.6317 79.1313 34.7016 79.071 34.6348C78.7008 34.2253 79.1201 33.6917 79.4908 33.4534Z" fill="black"/>
</g>
</svg>
