<svg width="33" height="33" viewBox="0 0 33 33" fill="none" xmlns="http://www.w3.org/2000/svg">
<g clip-path="url(#clip0_557_495)">
<path d="M13.2421 7.25638C13.2421 3.79083 10.4723 0.970886 7.06827 0.970886C3.66427 0.970886 0.894409 3.79083 0.894409 7.25638C0.894409 10.7219 3.66427 13.5419 7.06827 13.5419C10.4723 13.5419 13.2421 10.7219 13.2421 7.25638ZM3.28738 7.25638C3.28738 5.13076 4.98041 3.40713 7.06827 3.40713C9.15614 3.40713 10.8492 5.13076 10.8492 7.25638C10.8492 9.382 9.15016 11.1056 7.06827 11.1056C4.98639 11.1056 3.28738 9.382 3.28738 7.25638Z" fill="#3386E7"/>
<path d="M32.8645 13.6759C32.5115 10.8133 30.9322 8.23699 28.6349 6.78742C26.2898 5.30741 23.3883 5.06988 20.4211 6.12964C16.6222 7.60356 13.1883 11.8183 11.1184 15.7528C10.1133 15.1803 9.06641 14.7966 8.07333 14.6991C6.47602 14.5529 5.23168 14.9427 4.36423 15.8502C3.39507 16.8735 3.0122 18.4936 3.26346 20.5461C3.8617 25.0044 8.09128 28.2385 10.562 29.7672C13.7566 31.7467 17.3521 32.9709 19.8527 32.9709C20.1578 32.9709 20.439 32.9526 20.7082 32.9161H20.7621C24.9198 32.1365 33.4867 20.6984 32.8585 13.6759H32.8645ZM12.0157 19.5107C12.9191 20.4304 13.6071 21.484 13.8165 22.4403C13.8404 22.5621 13.9182 22.9214 13.5532 23.2564C13.2362 23.5487 12.7396 23.6645 12.3508 23.5366C11.8004 23.3539 11.573 22.7265 11.4713 22.2088C11.3637 21.7155 11.5671 20.7349 12.0217 19.5107H12.0157ZM20.3612 30.5103C16.4248 31.0158 6.40423 25.9606 5.6325 20.2355C5.47696 18.9686 5.6325 18.0185 6.08118 17.5495C6.36236 17.2572 6.81702 17.1049 7.42723 17.1049C7.55884 17.1049 7.69644 17.111 7.84002 17.1232C8.53996 17.1963 9.31768 17.5008 10.0774 17.9637C9.26982 19.9431 8.90489 21.6789 9.12624 22.7082C9.54501 24.8521 10.8552 25.5952 11.597 25.8449C12.7994 26.253 14.1993 25.9424 15.1565 25.0592C16.0479 24.2431 16.4068 23.092 16.1496 21.9043C15.7847 20.2416 14.5882 18.5057 13.0567 17.1536C14.7916 13.7551 17.7708 9.75964 21.2347 8.41361C23.508 7.60356 25.6318 7.75583 27.3667 8.85214C29.0537 9.91799 30.2203 11.8304 30.4775 13.9317C31.0279 20.1015 22.7662 29.9987 20.3553 30.5042L20.3612 30.5103Z" fill="#3386E7"/>
</g>
<defs>
<clipPath id="clip0_557_495">
<rect width="32" height="32" fill="white" transform="translate(0.894409 0.970886)"/>
</clipPath>
</defs>
</svg>
