<svg width="151" height="147" viewBox="0 0 151 147" fill="none" xmlns="http://www.w3.org/2000/svg">
<g clip-path="url(#clip0_636_1703)">
<path d="M58.2645 28.83C58.2645 12.94 45.3245 0 29.4245 0C13.5245 0 0.594452 12.94 0.594452 28.83C0.594452 44.72 13.5345 57.66 29.4245 57.66C45.3145 57.66 58.2545 44.72 58.2545 28.83H58.2645ZM11.7745 28.83C11.7745 19.08 19.6845 11.17 29.4345 11.17C39.1845 11.17 47.0945 19.08 47.0945 28.83C47.0945 38.58 39.1545 46.49 29.4345 46.49C19.7145 46.49 11.7745 38.58 11.7745 28.83Z" fill="#B2CEDF"/>
<path d="M149.914 58.28C148.264 45.15 140.894 33.33 130.164 26.68C119.214 19.89 105.664 18.8 91.8045 23.66C74.0645 30.42 58.0245 49.76 48.3545 67.81C43.6645 65.18 38.7745 63.42 34.1345 62.98C26.6745 62.31 20.8645 64.1 16.8145 68.26C12.2845 72.95 10.5045 80.39 11.6745 89.8C14.4645 110.25 34.2244 125.09 45.7645 132.1C60.6844 141.18 77.4744 146.8 89.1544 146.8C90.5744 146.8 91.8944 146.72 93.1544 146.55H93.4044C112.824 142.97 152.834 90.5 149.904 58.28H149.934H149.914ZM52.5345 85.05C56.7545 89.27 59.9645 94.1 60.9445 98.49C61.0545 99.05 61.4145 100.7 59.7145 102.23C58.2345 103.57 55.9145 104.1 54.0945 103.52C51.5245 102.68 50.4645 99.8 49.9845 97.43C49.4845 95.17 50.4345 90.67 52.5545 85.05H52.5245H52.5345ZM91.5145 135.51C73.1245 137.83 26.3245 114.64 22.7245 88.37C21.9945 82.56 22.7245 78.2 24.8245 76.05C26.1345 74.71 28.2645 74.01 31.1145 74.01C31.7245 74.01 32.3745 74.04 33.0445 74.09C36.3145 74.43 39.9445 75.82 43.4945 77.95C39.7245 87.03 38.0145 94.99 39.0545 99.72C41.0145 109.56 47.1245 112.96 50.5945 114.11C56.2145 115.98 62.7445 114.56 67.2145 110.51C71.3745 106.77 73.0545 101.49 71.8545 96.04C70.1545 88.41 64.5645 80.45 57.4045 74.25C65.5045 58.66 79.4245 40.33 95.6045 34.15C106.224 30.43 116.144 31.13 124.244 36.16C132.124 41.05 137.574 49.82 138.774 59.46C141.344 87.76 102.754 133.17 91.4945 135.49L91.5245 135.52L91.5145 135.51Z" fill="#B2CEDF"/>
<path d="M130.154 26.68C119.204 19.89 105.644 18.8 91.7944 23.66C80.5944 27.93 70.0745 37.21 61.4145 48L70.8945 53.68C77.9545 45.07 86.4145 37.65 95.5945 34.14C106.204 30.43 116.124 31.12 124.234 36.15C129.334 39.32 133.424 44.12 135.984 49.74L145.774 44.3C142.264 37.03 136.874 30.84 130.154 26.68Z" fill="#D86E38"/>
<path d="M123.204 102.97C111.914 120.12 97.6345 134.21 91.4845 135.48L91.5145 135.51C85.7344 136.24 77.1345 134.45 67.9645 130.82L62.9445 140.75C72.5345 144.6 81.8345 146.8 89.1345 146.8C90.5645 146.8 91.8745 146.72 93.1345 146.55H93.3845C103.944 144.61 120.574 128.22 133.094 108.49L123.204 102.97Z" fill="#4089CB"/>
<path d="M35.7945 0.719971L33.3345 11.61C41.2045 13.39 47.0845 20.42 47.0845 28.83C47.0845 32.15 46.1645 35.25 44.5745 37.91L54.1545 43.65C56.7645 39.32 58.2645 34.25 58.2645 28.83C58.2645 15.13 48.6445 3.61997 35.7945 0.719971Z" fill="#B2CEDF"/>
<path d="M44.5745 37.91C41.4745 43.05 35.8445 46.49 29.4245 46.49C19.7045 46.49 11.7645 38.58 11.7645 28.83C11.7645 19.08 19.6745 11.17 29.4245 11.17C30.7645 11.17 32.0745 11.32 33.3345 11.61L35.7945 0.72C33.7445 0.25 31.6145 0 29.4245 0C13.5245 0 0.594452 12.94 0.594452 28.83C0.594452 44.72 13.5245 57.67 29.4245 57.67C39.9044 57.67 49.1045 52.04 54.1545 43.65L44.5745 37.91Z" fill="#4089CB"/>
<path d="M22.7244 88.38C22.5444 86.93 22.4444 85.57 22.4444 84.31L11.3244 83.13C11.2544 85.22 11.3644 87.45 11.6544 89.8C14.4544 110.25 34.2044 125.09 45.7444 132.1C51.3344 135.5 57.1944 138.42 62.9444 140.75L67.9645 130.82C47.9645 122.94 25.1944 106.38 22.7244 88.38Z" fill="#C8C756"/>
<path d="M149.874 58.28H149.904C149.284 53.37 147.864 48.64 145.774 44.3L135.984 49.7401C137.384 52.7901 138.334 56.07 138.754 59.46C139.924 72.32 132.594 88.7001 123.204 102.97L133.094 108.49C143.604 91.9201 151.214 72.99 149.874 58.28Z" fill="#E4C6DE"/>
<path d="M71.8444 96.03C70.1344 88.4 64.5444 80.44 57.3944 74.24C60.8944 67.49 65.4944 60.24 70.8945 53.68L61.4144 48C56.3444 54.31 51.9044 61.15 48.3444 67.81C43.6444 65.18 38.7544 63.42 34.1244 62.98C26.6644 62.31 20.8444 64.09 16.7944 68.26C13.4044 71.78 11.5444 76.84 11.3244 83.13L22.4444 84.31C22.4444 80.52 23.2444 77.66 24.8144 76.05C26.1344 74.71 28.2544 74.01 31.1044 74.01C31.7144 74.01 32.3644 74.04 33.0344 74.1C36.3044 74.43 39.9344 75.83 43.4844 77.95C39.7044 87.03 38.0044 95 39.0344 99.72C40.9944 109.55 47.1144 112.96 50.5744 114.11C56.1944 115.98 62.7344 114.56 67.2044 110.5C71.3644 106.76 73.0444 101.48 71.8444 96.03ZM59.7144 102.23C58.2344 103.58 55.9144 104.11 54.0944 103.52C51.5244 102.68 50.4645 99.8 49.9944 97.43C49.4845 95.16 50.4344 90.68 52.5544 85.07C52.5544 85.07 52.5478 85.0633 52.5344 85.05H52.5644C52.5644 85.05 52.5544 85.05 52.5544 85.07C56.7644 89.29 59.9644 94.11 60.9444 98.49C61.0544 99.05 61.4144 100.7 59.7144 102.23Z" fill="#275D47"/>
</g>
<defs>
<clipPath id="clip0_636_1703">
<rect width="149.44" height="146.8" fill="white" transform="translate(0.594452)"/>
</clipPath>
</defs>
</svg>
